<svg width="450" height="90" viewBox="0 0 450 90" fill="none" xmlns="http://www.w3.org/2000/svg">
<g clip-path="url(#clip0_0_3)">
<path d="M40.3384 75.9136C27.358 75.5963 16.3759 70.9244 8.13496 60.7344C-4.33262 45.3436 -2.24584 23.5356 12.839 10.1722C28.9673 -4.10791 54.716 -3.24405 69.8185 12.1115C88.9885 31.5748 81.4549 63.2907 55.2995 73.181C50.507 74.9969 45.52 75.9313 40.3561 75.9136H40.3384ZM18.2505 19.9391C16.4467 20.2212 14.5898 20.3799 12.839 20.8735C12.0432 21.1027 11.0352 21.8784 10.823 22.6188C10.3986 24.0292 11.6542 24.5934 12.786 24.8049C16.3759 25.4925 18.2859 28.0312 19.7714 31.0106C21.4691 34.4132 23.043 37.8862 24.7761 41.2711C26.9513 45.5375 28.9673 49.9097 31.5492 53.9293C36.271 61.2986 43.2387 61.9156 50.5601 60.4347C51.3559 60.276 51.9572 59.2711 52.6646 58.6717C51.9749 57.9313 51.409 56.7324 50.5778 56.5209C47.0586 55.657 45.0779 53.2418 43.6101 50.2447C41.3111 45.5728 39.1005 40.848 36.7308 36.2114C35.1392 33.0733 33.5299 29.9176 31.6023 26.991C28.5075 22.2839 23.9095 20.0978 18.2505 19.9567V19.9391ZM58.6065 46.3309C58.6419 43.2809 56.449 40.9891 53.425 40.9009C50.2418 40.8128 47.7836 43.228 47.8544 46.3838C47.9251 49.4161 50.1887 51.5846 53.2835 51.5669C56.3606 51.5669 58.5889 49.3632 58.6242 46.3133L58.6065 46.3309ZM58.748 37.1987C61.1354 37.2692 63.1691 35.5062 63.3106 33.2143C63.4521 30.9225 61.1885 28.5777 58.8541 28.5953C56.6082 28.5953 54.5922 30.6228 54.5568 32.897C54.5214 35.277 56.3076 37.1281 58.748 37.1987ZM63.3283 19.0929C61.5245 19.181 60.1628 20.6267 60.2512 22.3896C60.3396 24.1526 61.8074 25.422 63.6643 25.3514C65.4505 25.2809 66.8652 23.7824 66.7591 22.0723C66.653 20.2917 65.1852 19.0224 63.3283 19.1105V19.0929Z" fill="#D9DFE8"/>
<path d="M193.362 21.6846C191.93 20.6621 190.975 19.9745 189.207 18.7228H209.243C209.243 19.0931 209.332 19.5338 209.243 19.5867C206.873 20.8384 206.06 22.7072 206.29 25.4045C206.555 28.4721 206.343 31.5926 206.343 34.7659C207.422 35.524 208.43 36.2292 209.508 36.9696C206.979 38.2037 202.311 38.4153 196.793 37.4985C198.013 36.476 199.004 35.6474 200.153 34.6954C200.153 30.7463 200.153 26.6562 200.153 22.5838C200.153 22.0372 200.012 21.5083 199.888 20.7326H196.21C195.785 24.3467 195.591 27.714 194.954 31.0108C194.6 32.8795 193.822 34.8012 192.726 36.3702C191.311 38.3977 188.817 39.1557 186.695 38.1508C185.068 37.3928 183.813 37.5514 182.363 37.9393C180.417 38.4682 178.596 38.8913 176.721 37.4985C176.191 37.1107 174.971 37.6925 174.051 37.763C172.141 37.8864 170.143 38.3095 168.303 37.9569C166.022 37.5162 164.678 35.4359 164.625 33.3555C164.572 31.2752 165.863 29.336 168.215 28.6837C170.638 28.0137 173.167 27.714 176.191 27.1675C176.191 25.7395 176.421 24.1881 176.102 22.7601C175.908 21.8257 175.112 20.7326 174.281 20.2919C173.131 19.6748 172.106 20.4858 171.628 21.667C170.656 24.1352 168.852 24.0294 166.818 23.4476C166.323 19.8335 166.27 19.6396 169.311 19.0578C172.053 18.5465 174.9 18.1939 177.676 18.3702C180.842 18.5642 182.097 20.2037 182.203 23.3947C182.31 26.4976 182.15 29.6004 182.292 32.6856C182.327 33.5142 182.822 34.5896 183.459 35.0656C184.237 35.6298 185.051 35.4182 185.846 34.3428C187.403 32.2096 188.623 34.2547 190.144 35.4182C193.309 31.1871 192.743 26.3389 193.345 21.7199L193.362 21.6846ZM175.943 34.6954V29.5475C171.805 29.8649 170.532 30.7111 170.797 32.7561C171.027 34.6778 172.442 35.2419 175.943 34.6778V34.6954Z" fill="#D9DFE8"/>
<path d="M138.788 41.4652C138.151 45.7845 135.923 47.9883 131.732 48.1998C130.052 48.288 128.39 48.7111 126.745 49.0989C123.933 49.7512 121.899 51.2321 121.44 55.1636C124.181 52.5015 126.869 51.0735 130.264 51.2145C135.764 51.4437 139.566 54.7581 139.884 59.8884C140.256 65.7062 136.648 70.2018 131.095 70.8717C123.314 71.8061 118.539 67.9275 118.203 60.0823C118.097 57.5965 118.451 55.0049 119.105 52.5896C120.343 48.0411 123.243 45.0793 128.107 44.1273C131.59 43.4574 135.004 42.4172 138.788 41.4652ZM133.589 61.5279C133.288 59.8531 133.147 58.1606 132.652 56.5916C132.121 54.9168 130.989 53.6474 129.008 53.6474C127.063 53.6474 125.914 54.7933 125.312 56.5034C124.163 59.8178 124.234 63.1675 125.878 66.2351C126.427 67.2576 127.912 68.1215 129.115 68.3859C130.795 68.7561 132.086 67.5926 132.616 66.0059C133.094 64.5779 133.27 63.0441 133.589 61.5103V61.5279Z" fill="#D9DFE8"/>
<path d="M222.17 29.7767C224.169 27.1499 226.167 24.5054 228.272 21.7375C227.405 20.8208 226.68 20.0451 225.407 18.6876C229.828 18.2116 233.577 18.3702 237.68 18.8815C233.612 20.9442 234.567 24.4701 234.532 27.6611C234.514 30.0411 234.532 32.4212 234.532 34.6778C235.664 35.5769 236.601 36.2997 238.246 37.6043C233.701 38.2566 230.022 38.0098 225.619 37.8159C229.492 34.5191 227.953 30.6758 227.582 26.6915C225.477 29.336 223.391 31.9804 221.286 34.6601C222.17 35.6474 222.86 36.4231 223.992 37.7101H211.666C212.479 36.8639 212.815 36.2645 213.311 36.0529C214.92 35.3653 215.114 34.096 215.079 32.5975C215.026 30.4819 215.079 28.3839 215.079 26.2684C215.079 23.3653 214.1 21.0147 212.143 19.2165C214.849 18.2292 219.182 18.1058 223.833 19.0225C219.889 21.9138 221.587 25.8276 221.375 29.3888C221.658 29.5299 221.941 29.6709 222.224 29.812L222.17 29.7767Z" fill="#D9DFE8"/>
<path d="M251.315 18.7052C249.033 20.9265 249.051 23.4829 249.652 26.4799H255.559C256.673 23.7649 256.372 21.2791 253.543 19.3575C256.337 18.1939 260.068 18.0529 265.621 18.8815C264.348 19.9217 263.375 20.7326 262.279 21.6494V34.8717C263.163 35.5064 264.153 36.2116 265.144 36.8991C265.02 37.2341 264.914 37.6748 264.826 37.6925C261.218 37.7277 257.61 37.7277 253.207 37.7277C256.213 35.2596 256.496 32.5269 255.7 29.1949H249.67C249.122 32.2449 248.75 35.0656 252.216 37.5162C247.76 38.3095 244.064 37.9745 239.324 37.7982C241.004 36.4408 241.977 35.6474 243.197 34.6601C243.197 32.4741 243.215 30.094 243.197 27.714C243.162 24.5054 244.152 20.9442 240.209 18.7405H251.315V18.7052Z" fill="#D9DFE8"/>
<path d="M302.865 37.8511C300.124 34.8893 301.256 29.6709 296.145 29.0362C294.695 33.7434 294.836 34.2723 297.966 37.1107C295.455 38.1685 291.299 38.3271 285.658 37.4809C286.984 36.4231 287.992 35.6298 289.212 34.6601C289.212 32.1743 289.248 29.4946 289.212 26.8325C289.159 23.8883 290.344 20.4329 284.897 19.4456C289.195 18.2116 293.899 18.1058 298.868 18.9167C297.613 19.9393 296.622 20.7502 295.544 21.6141V26.427C297.86 27.3261 299.24 26.427 300.212 24.5759C300.531 23.9589 300.778 23.2889 301.079 22.6543C303.077 18.4407 304.209 17.8766 309.284 18.6523V23.712C307.728 23.0421 306.473 22.5132 304.863 21.8257C304.05 23.5005 303.166 25.3516 302.14 27.4672C304.704 28.9305 306.366 31.1871 307.357 34.0607C307.781 35.2948 308.984 36.2644 309.939 37.4633C307.852 38.5739 305.27 37.7982 302.865 37.8335V37.8511Z" fill="#D9DFE8"/>
<path d="M333.388 37.0402C335.263 36.0353 336.872 34.9246 337.597 32.6503C338.057 31.1871 339.383 29.9882 340.462 28.4897C340.108 28.2782 339.543 27.9079 338.977 27.5553C337.226 26.4799 336.536 24.9109 336.819 22.9011C337.12 20.856 338.464 19.7277 340.321 19.093C340.851 18.9167 341.399 18.617 341.93 18.617C347.218 18.5818 352.488 18.5994 358.606 18.5994C357.634 19.569 357.28 20.1508 356.785 20.38C355.246 21.0323 354.84 22.1783 354.857 23.7297C354.91 27.379 354.875 31.0108 354.875 34.7483C355.954 35.5064 356.962 36.1939 358.023 36.952C355.529 38.2037 351.515 38.3976 346.227 37.4633C349.11 35.2595 349.021 32.5093 348.367 29.4241C342.637 29.4241 343.981 34.9422 341.311 37.7277C338.959 37.6925 336.094 39.1205 333.477 36.9344L333.371 37.0578L333.388 37.0402ZM348.473 20.6621C344.388 20.5916 342.938 21.4731 342.903 23.8178C342.867 26.286 344.706 27.379 348.473 26.9736V20.6621Z" fill="#D9DFE8"/>
<path d="M117.107 12.5171C117.107 13.998 117.142 15.3732 117.107 16.7659C117.089 17.4182 116.895 18.0705 116.753 18.8815C113.287 18.617 114.277 15.0206 112.332 13.716C105.665 12.9579 101.438 16.1312 100.802 22.6895C100.607 24.7698 100.643 26.9383 101.049 28.9657C101.792 32.7737 104.268 35.1009 108.141 35.8237C111.642 36.4936 112.456 36.0705 114.047 32.8972C114.578 31.8394 114.684 30.3056 116.842 30.57C117.885 32.4388 116.859 34.4662 116.965 36.617C111.766 38.7679 106.585 39.2615 101.332 37.287C99.7937 36.7052 98.2728 35.7355 97.141 34.572C90.9691 28.2253 93.4626 15.9373 101.598 12.4642C106.638 10.3134 111.731 10.7542 117.107 12.5171Z" fill="#D9DFE8"/>
<path d="M104.091 70.9598C97.477 70.8188 93.7102 67.0637 93.834 60.7169C93.9578 54.335 98.4143 50.3506 105.258 50.474C111.748 50.5974 115.674 54.5289 115.515 60.7698C115.356 67.2223 111.006 71.1009 104.091 70.9422V70.9598ZM109.485 60.8403C109.043 59.0068 108.76 57.2086 108.176 55.5162C107.646 54.0176 106.585 52.8893 104.763 52.8717C102.8 52.8364 101.598 53.9118 100.961 55.6219C99.6345 59.2008 99.776 62.8325 101.438 66.1998C101.951 67.24 103.437 68.1391 104.639 68.4212C106.302 68.809 107.663 67.6983 108.229 66.1293C108.83 64.4368 109.078 62.6386 109.502 60.8403H109.485Z" fill="#D9DFE8"/>
<path d="M229.368 69.5671C232.693 68.5093 232.675 66.0059 232.587 63.379C232.498 60.2938 232.569 57.2086 232.569 54.0353C231.49 53.2948 230.482 52.5896 229.527 51.9373C229.916 50.4564 238.086 50.333 241.853 51.5671C239.814 53.2713 238.941 55.6866 239.236 58.8129C240.403 58.8835 241.641 58.9187 242.861 59.0421C244.241 59.2008 245.673 59.2713 246.999 59.6768C249.634 60.5054 251.067 62.5681 250.979 64.9657C250.89 67.4339 249.334 69.2498 246.681 70.0431C244.011 70.8364 232.71 70.713 229.386 69.5318L229.368 69.5671ZM239.271 61.4045V68.1567C243.215 68.0686 244.382 67.3281 244.506 65.0186C244.647 62.4623 243.427 61.5632 239.271 61.3869V61.4045Z" fill="#D9DFE8"/>
<path d="M147.4 54C146.286 53.2243 145.278 52.5191 144.146 51.7434C147.117 50.6151 158.489 50.4212 163.847 51.4084C163.14 52.0784 162.521 52.5015 162.132 53.0656C161.566 53.9295 160.823 54.8639 160.735 55.8335C160.522 58.0725 160.699 60.3291 160.646 62.5857C160.575 65.4065 160.275 68.2801 164.024 69.5142C160.964 70.8188 155.747 70.9599 151.008 69.9021C152.193 68.9148 153.183 68.0862 154.209 67.24V53.2067H150.424C150.035 56.5034 149.717 59.5534 149.328 62.6033C149.187 63.714 148.992 64.8423 148.638 65.9001C147.277 69.9021 145.278 71.0127 140.238 70.4662C140.132 69.7258 139.973 68.9324 139.938 68.1215C139.92 67.4339 140.061 66.764 140.203 65.4065C141.794 66.1293 143.05 66.6934 144.323 67.2752C146.746 64.5073 147.365 61.9334 147.4 54Z" fill="#D9DFE8"/>
<path d="M183.76 66.8168C184.998 67.5044 185.953 68.0509 186.872 68.5622C186.076 70.8893 180.913 71.3124 177.995 69.5847C175.766 70.0255 173.75 70.7306 171.717 70.7659C168.551 70.8188 166.447 68.7561 166.27 66.0235C166.093 63.3614 167.631 61.5279 170.744 60.7698C171.84 60.5054 172.972 60.4172 174.086 60.2233C175.183 60.0294 176.261 59.8178 177.676 59.5534C177.676 58.0725 177.888 56.6445 177.606 55.3222C177.411 54.3702 176.721 53.0656 175.961 52.8188C175.253 52.5896 173.68 53.3301 173.326 54.0529C172.229 56.3095 170.691 56.715 168.286 55.8687V52.3252C171.681 50.809 175.112 50.1743 178.667 50.5446C182.221 50.9148 183.654 52.4486 183.76 56.0098C183.848 59.5181 183.777 63.0264 183.777 66.7992L183.76 66.8168ZM177.393 67.2047V62.1097C173.379 62.3389 172.141 63.1146 172.265 65.0891C172.389 66.9755 173.644 67.522 177.393 67.2047Z" fill="#D9DFE8"/>
<path d="M333.477 36.9167C332.398 37.2165 331.284 37.4633 330.223 37.8511C327.818 38.715 325.536 38.7679 323.68 36.952C322.265 37.4633 321.062 38.2566 319.895 38.2213C318.003 38.1508 315.828 38.0098 314.324 37.0578C310.982 34.9246 311.76 30.0235 315.615 28.7189C317.985 27.9079 320.567 27.7316 323.573 27.1675C323.626 25.6866 323.874 24.047 323.662 22.4603C323.556 21.6494 322.795 20.6621 322.07 20.2742C320.921 19.6748 319.86 20.3095 319.365 21.5083C318.392 23.8355 316.694 24.1352 314.554 23.3594C313.935 19.7982 313.9 19.6219 316.906 19.0049C319.506 18.476 322.212 18.0881 324.847 18.2292C328.49 18.4231 329.763 20.0098 329.834 23.6944C329.904 27.2027 329.834 30.7111 329.834 33.8492C331.213 35.1009 332.292 36.0705 333.371 37.0225L333.477 36.8991V36.9167ZM323.609 29.477C321.54 29.4241 319.647 29.4065 318.728 31.3457C318.392 32.0509 318.516 33.4084 318.993 34.0078C320.16 35.4711 321.805 35.5064 323.609 34.6954V29.477Z" fill="#D9DFE8"/>
<path d="M140.327 37.7454C139.265 37.8335 138.098 37.6572 137.179 38.0627C134.774 39.1029 132.899 37.428 130.812 37.2165C128.849 37.0225 126.745 38.38 124.747 38.2743C121.811 38.1156 119.972 35.859 119.936 33.3203C119.901 30.8697 121.298 29.2478 124.304 28.4192C125.383 28.1195 126.515 27.9432 127.611 27.7669C128.708 27.5906 129.804 27.4848 131.343 27.2909C131.343 25.5279 131.537 23.8707 131.254 22.2664C131.131 21.4907 130.246 20.4682 129.521 20.2919C128.832 20.1332 127.47 20.715 127.169 21.332C126.108 23.4652 124.64 24.1881 122.394 23.4829C121.422 19.8864 121.369 19.6572 124.393 19.0754C127.258 18.5289 130.246 18.1763 133.147 18.3702C136.171 18.5642 137.267 20.098 137.373 23.1303C137.479 26.0744 137.444 29.0363 137.391 31.9804C137.373 33.6376 137.497 35.048 139.584 35.4182C141.052 35.6827 140.556 36.8286 140.344 37.763L140.327 37.7454ZM131.201 29.5651C129.115 29.3007 127.311 29.4241 126.391 31.3105C126.037 32.0333 126.161 33.4084 126.639 34.0255C127.806 35.5064 129.468 35.4359 131.201 34.713V29.5828V29.5651Z" fill="#D9DFE8"/>
<path d="M140.344 37.763C143.793 35.3301 146.958 32.6151 149.328 28.7542C147.613 25.0872 145.243 21.7728 141.069 18.7405H152.547C152.44 19.1283 152.387 19.6043 152.193 20.0274C152.016 20.3977 151.68 20.6797 151.203 21.2263C152.016 22.4251 152.865 23.6768 153.731 24.9638C155.836 23.1832 157.215 21.4554 154.863 18.6523H162.98C160.239 21.4907 157.781 24.0294 155.128 26.7796C157.763 30.6406 159.762 34.5896 164.324 37.4809C159.974 38.3095 156.455 37.9217 152.829 37.9393C153.525 35.7414 152.841 33.4554 150.778 31.0813C149.487 33.1616 146.127 34.2723 149.31 37.7454C145.879 37.7454 143.121 37.7454 140.344 37.7454V37.763Z" fill="#D9DFE8"/>
<path d="M224.151 70.3076H210.729C211.878 69.285 212.515 68.8619 212.939 68.2978C213.54 67.4692 214.407 66.5348 214.442 65.618C214.602 61.5632 214.513 57.4907 214.513 53.5064C212.108 52.431 210.799 52.9775 210.021 55.2165C209.508 56.6974 209.314 56.6268 207.209 57.0147V50.9853C214.089 50.6856 220.915 50.8443 227.918 50.9148V56.9618C225.884 57.6846 225.442 56.3095 225.088 55.1283C224.452 53.0304 223.161 52.5367 220.667 53.4182C220.667 57.526 220.437 61.8629 220.809 66.1469C220.915 67.4339 222.701 68.5798 224.151 70.3076Z" fill="#D9DFE8"/>
<path d="M283.553 19.4985V23.3947C280.034 25.5103 279.291 22.2135 277.859 20.5916C273.597 21.8257 271.899 24.4878 272.324 29.142C272.571 31.857 273.615 34.2546 276.373 34.9598C278.602 35.5416 281.042 35.3301 283.447 35.4887C281.555 38.5387 274.676 39.4554 270.644 37.287C266.276 34.9422 264.596 29.4065 266.735 24.4349C269.105 18.8991 275.701 16.8541 283.571 19.4985H283.553Z" fill="#D9DFE8"/>
<path d="M205.441 51.9549C205.494 53.1714 205.565 54.5289 205.618 55.8159C203.283 56.2742 201.373 55.4163 199.888 53.2419C195.944 53.8413 194.229 56.0274 194.229 60.4878C194.229 63.3262 194.883 66.1469 197.73 67.1166C200.118 67.9452 202.859 67.7689 205.441 68.0333C203.425 70.9422 196.528 71.8413 192.567 69.7081C188.181 67.3457 186.519 61.7924 188.711 56.8384C191.17 51.285 197.359 49.3986 205.441 51.9373V51.9549Z" fill="#D9DFE8"/>
<path d="M435.375 70.1313H431.378C431.52 67.5573 431.643 65.0715 431.767 62.5857C429.309 64.6837 426.656 66.3937 426.816 70.0255H422.748C423.102 65.9177 423.721 61.8629 422.324 57.6494H426.639C426.462 60.0823 426.267 62.5505 426.091 65.0186C428.69 63.0088 431.307 61.3164 430.795 57.6317H435.304C434.367 61.6866 434.19 65.7062 435.357 70.1136L435.375 70.1313Z" fill="#D9DFE8"/>
<path d="M332.822 83.0362C334.219 84.288 335.316 85.4163 334.609 87.1969C333.866 89.048 332.327 89.5416 330.506 89.5416C328.56 89.5416 326.597 89.5416 324.688 89.5416V76.8129C326.173 76.8129 327.995 76.7424 329.798 76.8129C334.131 77.0245 335.033 78.8404 332.822 83.001V83.0362ZM328.454 88.431C330.718 88.6425 331.62 87.7258 331.514 86.0509C331.425 84.4114 330.417 83.5651 328.454 83.8296V88.431ZM328.454 82.666C330.842 82.2429 331.213 80.9383 330.771 79.4927C330.576 78.858 329.622 78.4525 328.454 77.4829V82.6836V82.666Z" fill="#D9DFE8"/>
<path d="M351.656 76.8306C353.301 76.8306 354.999 76.7777 356.679 76.8306C361.012 77.0245 361.966 78.7698 360.357 82.0314C360.764 84.3585 361.542 86.0862 361.206 87.5671C360.782 89.4535 358.73 89.5593 356.979 89.5593C355.158 89.5593 353.354 89.5593 351.656 89.5593V76.8306ZM355.423 88.2547C357.475 88.8717 358.394 87.8492 358.447 86.3154C358.518 84.5877 357.528 83.5651 355.423 83.8296V88.2547ZM355.423 82.8071C357.687 82.1019 358.288 80.9383 357.775 79.4574C357.563 78.8227 356.59 78.4525 355.423 77.5358V82.8071Z" fill="#D9DFE8"/>
<path d="M416.753 60.3115C416.435 61.0872 416.01 62.1097 415.763 62.7444C417.124 65.2302 418.309 67.381 419.6 69.7434C417.39 70.572 415.993 70.4133 415.232 68.0686C414.702 66.4114 414.401 64.3663 411.731 64.4016V69.9726H407.964V57.7375H411.961C411.801 59.4476 411.66 61.1577 411.501 62.8502C411.801 63.0088 412.12 63.1499 412.42 63.3085C413.181 62.4623 414.012 61.669 414.666 60.7522C415.232 59.9589 415.409 58.7424 416.116 58.2664C416.895 57.7375 418.115 57.7904 419.123 57.7904C419.247 57.7904 419.636 59.5005 419.459 59.571C418.698 59.9589 417.796 60.047 416.735 60.2938L416.753 60.3115Z" fill="#D9DFE8"/>
<path d="M349.64 83.142C349.605 87.1792 346.811 89.9471 342.726 90C339.083 90.0352 336.306 87.3379 336.253 83.7062C336.183 79.5808 339.26 76.6014 343.469 76.7248C347.288 76.8305 349.676 79.3163 349.64 83.1596V83.142ZM346.263 83.142C346.227 80.1626 344.954 78.0117 343.15 77.8354C341.258 77.6591 339.578 80.1449 339.543 83.142C339.507 86.1743 341.028 88.5896 342.991 88.5896C345.042 88.5896 346.316 86.4564 346.28 83.142H346.263Z" fill="#D9DFE8"/>
<path d="M270.714 83.0362C270.714 87.1263 267.92 89.9647 263.8 90C260.104 90.0176 257.327 87.2674 257.327 83.6004C257.327 79.5808 260.281 76.6895 264.33 76.7071C268.239 76.7248 270.697 79.1753 270.697 83.0362H270.714ZM267.337 83.1068C267.284 80.1097 266.01 77.9765 264.207 77.8355C262.297 77.6944 260.687 80.1273 260.67 83.1773C260.67 86.333 262.102 88.6072 264.1 88.5896C266.116 88.572 267.39 86.4035 267.337 83.1068Z" fill="#D9DFE8"/>
<path d="M316.747 76.7072C320.549 76.9187 322.884 79.5808 322.672 83.477C322.459 87.4613 319.365 90.2116 315.315 90C311.619 89.7884 309.231 87.0206 309.426 83.1597C309.62 79.1048 312.609 76.478 316.747 76.7248V76.7072ZM312.715 82.6484C312.715 83.0715 312.697 83.477 312.715 83.9001C312.91 86.7385 314.165 88.5544 315.934 88.6073C317.773 88.6601 319.029 86.9677 319.258 84.0588C319.294 83.6533 319.329 83.2302 319.294 82.8071C319.152 79.8276 317.702 77.7297 315.845 77.8355C314.112 77.9236 312.874 79.81 312.697 82.6484H312.715Z" fill="#D9DFE8"/>
<path d="M284.332 70.0255C285.251 65.7591 285.428 61.8276 284.155 57.6846H288.593C288.399 59.3242 288.187 61.0167 287.992 62.7267C288.257 62.903 288.54 63.0793 288.806 63.2556C289.531 62.621 290.38 62.0744 290.946 61.3164C291.6 60.4172 291.777 59.095 292.573 58.4251C293.28 57.8257 294.535 57.8609 295.561 57.6141C295.72 58.478 295.88 59.3242 296.074 60.382C294.978 60.1881 294.341 60.0646 293.545 59.9236C293.032 61.1224 292.537 62.2684 292.29 62.8325C293.722 65.3888 294.925 67.522 296.18 69.7434C293.881 70.6601 292.466 70.3252 291.777 67.9452C291.317 66.3937 290.963 64.5779 288.399 64.2605V70.0078H284.332V70.0255Z" fill="#D9DFE8"/>
<path d="M313.405 73.1988C312.733 71.2243 312.963 70.1665 314.13 68.7032C316.57 65.6357 317.879 61.9158 316.429 57.6317H325.218C323.131 62.903 324.581 67.9452 325.749 73.2341C324.369 69.9373 321.787 70.237 319.258 70.1489C316.747 70.0607 314.466 70.1489 313.405 73.1812V73.1988ZM320.797 69.003C321.929 62.5328 321.54 59.8884 319.17 58.9364C318.303 62.2507 317.455 65.5475 316.553 69.003H320.797Z" fill="#D9DFE8"/>
<path d="M438.081 57.5965H442.802C443.209 58.9011 443.598 60.1175 444.058 61.5632C446.162 60.6993 446.64 59.4476 446.145 57.667H449.912C448.338 59.5886 447.029 61.1929 445.455 63.1498C446.887 65.3183 448.338 67.4868 450 69.9902C448.514 70.096 447.188 70.1841 445.933 70.2723C445.19 68.7209 444.5 67.3105 443.457 65.142C442.36 67.1518 441.635 68.4564 440.751 70.0607H437.868C439.531 67.9275 440.946 66.1293 442.502 64.1371C441.069 62.0215 439.761 60.0823 438.098 57.5965H438.081Z" fill="#D9DFE8"/>
<path d="M362.108 65.4064C362.267 66.9755 362.426 68.333 362.603 70.0255C361.454 70.0783 360.11 70.1489 358.66 70.237V57.6494C360.605 57.6494 362.851 57.5083 365.044 57.7022C366.865 57.8609 368.227 58.8482 368.315 60.9285C368.404 62.9383 367.272 64.0842 365.521 64.666C364.495 65.0186 363.399 65.1244 362.09 65.4064H362.108ZM362.444 63.9432C364.92 63.4672 365.291 62.1273 365.026 60.4877C364.831 59.2008 364.071 58.5661 362.444 59.0597V63.9432Z" fill="#D9DFE8"/>
<path d="M257.451 67.4163C261.572 70.431 263.853 69.7434 265.25 65.0186C263.588 63.0441 262.332 65.6885 260.687 65.4594V62.1802C262.279 62.5857 263.729 62.9559 265.444 63.3967C265.356 60.7346 264.436 59.43 262.456 58.7248C260.316 57.9491 259.502 59.5358 258.282 61.2811C257.681 59.571 257.239 58.3898 258.919 57.8257C261.572 56.9265 264.242 56.9265 266.612 58.619C268.645 60.0823 269.141 62.2507 268.893 64.6308C268.398 69.1969 262.615 72.2292 258.583 69.9373C257.946 69.5671 257.84 68.2625 257.486 67.3986L257.451 67.4163Z" fill="#D9DFE8"/>
<path d="M297.931 76.8482C300.23 76.8482 302.175 76.76 304.12 76.8658C306.048 76.9892 307.728 77.6239 308.082 79.8805C308.4 81.9608 307.41 83.3359 304.916 84.1117C304.138 84.3585 303.289 84.4114 302.016 84.6229C302.14 86.1743 302.281 87.7081 302.405 89.383H298.461C298.674 85.3105 299.346 81.238 297.913 76.8482H297.931ZM302.299 78.2057V83.1244C304.439 83.0891 304.987 81.8903 304.952 80.3918C304.916 79.0343 304.35 77.9589 302.299 78.2057Z" fill="#D9DFE8"/>
<path d="M404.851 60.7698C402.146 58.3722 400.324 58.1959 398.662 59.9941C396.787 62.0039 396.805 66.2703 398.715 68.1038C400.466 69.8139 402.27 69.4789 404.975 66.8874C405.488 68.1743 405.718 69.285 404.144 70.0078C401.368 71.2948 396.911 70.4309 395.213 68.2096C393.516 66.0059 393.551 62.2155 395.284 59.9412C397.07 57.5965 401.385 56.5211 404.126 57.7199C405.453 58.3017 405.612 59.2184 404.851 60.7698Z" fill="#D9DFE8"/>
<path d="M392.738 67.2223C392.348 68.1214 392.207 69.4966 391.535 69.8139C388.988 70.9951 386.283 70.9598 383.842 69.4789C381.561 68.0862 380.871 65.7767 381.19 63.2556C381.561 60.3291 383.241 58.2664 386.159 57.667C387.751 57.3496 389.519 57.4731 391.146 57.7551C392.49 57.9843 392.826 59.0774 392.172 60.3291C391.889 60.4172 391.447 60.5935 391.411 60.5406C390.279 58.619 388.723 58.1783 386.796 59.2537C385.08 60.2057 384.09 62.8325 384.55 65.2125C384.903 67.1165 385.788 68.5798 387.857 69.144C389.996 69.7434 390.828 68.2625 391.659 66.6582C392.03 66.8521 392.384 67.046 392.755 67.24L392.738 67.2223Z" fill="#D9DFE8"/>
<path d="M373.196 57.4554C373.992 59.5358 374.717 61.3693 375.424 63.2027L376.432 63.238C377.016 61.4221 377.6 59.6063 378.236 57.6494H380.801C379.244 60.9285 377.759 64.0666 376.256 67.1871C375.513 68.7561 374.593 70.2018 372.701 70.4662C370.897 70.7307 370.437 69.7963 371.039 67.9452C371.976 68.0509 372.931 68.1567 374.346 68.3154C373.497 64.1195 371.021 61.2458 369.005 57.6846C370.614 57.5965 372.047 57.526 373.196 57.4731V57.4554Z" fill="#D9DFE8"/>
<path d="M331.85 65.2302C332.08 67.0284 332.257 68.4741 332.469 70.0607H328.313C329.162 65.812 329.374 61.7395 328.083 57.5612C330.294 57.5612 332.433 57.4025 334.52 57.5965C336.925 57.8433 338.181 59.1126 338.287 60.9109C338.393 62.6562 337.19 64.1195 335.015 64.7542C334.219 64.9834 333.371 65.001 331.867 65.2125L331.85 65.2302ZM332.239 64.0313C334.803 63.3967 335.316 62.0568 334.909 60.3996C334.644 59.2537 333.848 58.4603 332.239 59.1303V64.0313Z" fill="#D9DFE8"/>
<path d="M281.29 60.717C278.69 58.3898 276.992 58.1606 275.295 59.906C273.438 61.81 273.402 66.2174 275.224 68.0509C276.957 69.7787 278.761 69.479 281.59 66.8874V69.8492C280.123 70.096 278.637 70.5367 277.152 70.5367C273.243 70.5367 270.874 68.4212 270.573 64.8952C270.237 60.9285 272.448 58.0196 276.338 57.4554C277.435 57.2968 278.584 57.3673 279.698 57.5083C281.75 57.7728 282.262 58.9011 281.29 60.7346V60.717Z" fill="#D9DFE8"/>
<path d="M283.801 80.5328C280.476 77.5358 278.849 77.3947 277.063 79.2811C275.171 81.2733 275.206 85.6278 277.134 87.4437C278.973 89.189 280.812 88.8364 282.97 86.3506C283.182 86.4917 283.553 86.6327 283.553 86.7914C283.571 87.4789 283.483 88.1665 283.447 88.7836C277.594 90.7581 273.632 89.4535 272.554 85.2576C271.51 81.2556 273.951 77.3242 278.018 76.8306C279.645 76.6366 281.361 76.9716 282.97 77.3595C283.323 77.4476 283.377 78.7875 283.819 80.5328H283.801Z" fill="#D9DFE8"/>
<path d="M305.801 57.3497C307.516 61.4574 309.231 65.5651 311.106 70.0255C309.691 70.1136 308.382 70.1841 307.109 70.2547C306.809 68.7209 306.561 67.4163 306.313 66.1998C301.875 65.4417 301.521 65.7062 301.521 69.9902H298.603C300.654 65.6004 302.617 61.3869 304.58 57.1734L305.801 57.332V57.3497ZM302.83 64.3663C304.622 64.2253 305.022 63.332 304.032 61.6866C303.678 62.4976 303.36 63.2027 302.83 64.3663Z" fill="#D9DFE8"/>
<path d="M340.621 70.1842C339.49 70.096 338.694 70.0431 337.756 69.9726C339.79 65.5651 341.7 61.4222 343.928 56.6092C347.412 60.8756 347.642 65.9177 350.648 70.0078H346.227C345.891 68.7385 345.679 67.3986 345.131 66.2351C344.954 65.8472 343.893 65.7238 343.239 65.7062C341.063 65.6709 340.727 66.2351 340.621 70.1842ZM342.514 61.3693C342.673 62.9207 342.761 63.7317 342.832 64.5426C343.221 64.5074 343.822 64.5955 343.964 64.384C344.742 63.238 344.176 62.5152 342.496 61.3693H342.514Z" fill="#D9DFE8"/>
<path d="M287.975 89.4006C289.761 85.6454 288.947 81.9256 288.77 77.4829C287.196 78.6112 286.295 79.2635 285.145 80.0921V76.9716H295.72C295.844 77.8707 295.968 78.7698 296.18 80.3212C294.836 79.2811 293.987 78.6288 292.396 77.3947C292.024 81.8374 291.405 85.5397 293.015 89.4006H287.975Z" fill="#D9DFE8"/>
</g>
<defs>
<clipPath id="clip0_0_3">
<rect width="450" height="90" fill="white"/>
</clipPath>
</defs>
</svg>
