<svg width="458" height="103" viewBox="0 0 458 103" fill="none" xmlns="http://www.w3.org/2000/svg">
<g clip-path="url(#clip0_61_195)" filter="url(#filter0_d_61_195)">
<g filter="url(#filter1_d_61_195)">
<path d="M44.3385 75.9137C31.358 75.5963 20.376 70.9244 12.135 60.7344C-0.332603 45.3436 1.75417 23.5356 16.8391 10.1722C32.9673 -4.10788 58.716 -3.24402 73.8185 12.1115C92.9885 31.5748 85.4549 63.2908 59.2996 73.1811C54.5071 74.9969 49.52 75.9313 44.3561 75.9137H44.3385ZM22.2505 19.9391C20.4467 20.2212 18.5898 20.3799 16.8391 20.8735C16.0433 21.1027 15.0352 21.8784 14.823 22.6189C14.3986 24.0292 15.6542 24.5934 16.786 24.805C20.376 25.4925 22.2859 28.0312 23.7714 31.0106C25.4691 34.4132 27.043 37.8862 28.7761 41.2712C30.9513 45.5376 32.9673 49.9098 35.5493 53.9293C40.271 61.2986 47.2387 61.9156 54.5601 60.4347C55.3559 60.2761 55.9572 59.2712 56.6646 58.6717C55.9749 57.9313 55.409 56.7325 54.5778 56.5209C51.0586 55.6571 49.0779 53.2418 47.6101 50.2447C45.3111 45.5728 43.1005 40.8481 40.7308 36.2114C39.1392 33.0733 37.5299 29.9176 35.6023 26.991C32.5075 22.2839 27.9096 20.0978 22.2505 19.9568V19.9391ZM62.6066 46.3309C62.6419 43.281 60.449 40.9891 57.425 40.9009C54.2418 40.8128 51.7836 43.2281 51.8544 46.3838C51.9251 49.4161 54.1887 51.5846 57.2835 51.567C60.3606 51.567 62.5889 49.3632 62.6242 46.3133L62.6066 46.3309ZM62.748 37.1987C65.1354 37.2692 67.1692 35.5062 67.3106 33.2144C67.4521 30.9225 65.1885 28.5777 62.8541 28.5954C60.6082 28.5954 58.5922 30.6228 58.5568 32.897C58.5214 35.277 60.3076 37.1282 62.748 37.1987ZM67.3283 19.0929C65.5245 19.1811 64.1628 20.6267 64.2512 22.3897C64.3396 24.1527 65.8075 25.422 67.6643 25.3515C69.4505 25.281 70.8652 23.7824 70.7591 22.0723C70.653 20.2917 69.1852 19.0224 67.3283 19.1105V19.0929Z" fill="#D9DFE8"/>
</g>
<g filter="url(#filter2_d_61_195)">
<path d="M197.362 21.6846C195.93 20.662 194.975 19.9745 193.207 18.7228H213.243C213.243 19.093 213.332 19.5337 213.243 19.5866C210.873 20.8383 210.06 22.7071 210.29 25.4045C210.555 28.472 210.343 31.5925 210.343 34.7659C211.422 35.5239 212.43 36.2291 213.508 36.9696C210.98 38.2037 206.311 38.4152 200.793 37.4985C202.013 36.476 203.004 35.6474 204.153 34.6953C204.153 30.7463 204.153 26.6562 204.153 22.5837C204.153 22.0372 204.012 21.5083 203.888 20.7326H200.21C199.785 24.3467 199.591 27.714 198.954 31.0107C198.6 32.8795 197.822 34.8011 196.726 36.3702C195.311 38.3976 192.818 39.1557 190.695 38.1508C189.068 37.3927 187.813 37.5514 186.363 37.9392C184.417 38.4681 182.596 38.8912 180.721 37.4985C180.191 37.1106 178.971 37.6924 178.051 37.7629C176.141 37.8863 174.143 38.3095 172.303 37.9569C170.022 37.5161 168.678 35.4358 168.625 33.3555C168.572 31.2752 169.863 29.3359 172.215 28.6836C174.638 28.0137 177.167 27.714 180.191 27.1674C180.191 25.7394 180.421 24.188 180.102 22.76C179.908 21.8256 179.112 20.7326 178.281 20.2918C177.131 19.6748 176.106 20.4858 175.628 21.6669C174.656 24.1351 172.852 24.0293 170.818 23.4476C170.323 19.8334 170.27 19.6395 173.312 19.0577C176.053 18.5465 178.9 18.1939 181.676 18.3702C184.842 18.5641 186.097 20.2037 186.204 23.3947C186.31 26.4975 186.15 29.6003 186.292 32.6856C186.327 33.5142 186.822 34.5896 187.459 35.0656C188.237 35.6297 189.051 35.4182 189.847 34.3428C191.403 32.2095 192.623 34.2546 194.144 35.4182C197.309 31.187 196.743 26.3388 197.345 21.7198L197.362 21.6846ZM179.943 34.6953V29.5475C175.805 29.8648 174.532 30.711 174.797 32.7561C175.027 34.6777 176.442 35.2419 179.943 34.6777V34.6953Z" fill="#D9DFE8"/>
</g>
<g filter="url(#filter3_d_61_195)">
<path d="M142.788 41.4653C142.151 45.7846 139.923 47.9883 135.732 48.1999C134.052 48.2881 132.389 48.7112 130.745 49.099C127.933 49.7513 125.899 51.2322 125.439 55.1637C128.181 52.5016 130.869 51.0736 134.264 51.2146C139.764 51.4438 143.566 54.7582 143.884 59.8884C144.256 65.7063 140.648 70.2019 135.095 70.8718C127.314 71.8062 122.539 67.9276 122.203 60.0824C122.097 57.5966 122.451 55.005 123.105 52.5897C124.343 48.0412 127.243 45.0794 132.107 44.1274C135.59 43.4575 139.003 42.4173 142.788 41.4653ZM137.589 61.528C137.288 59.8532 137.147 58.1607 136.651 56.5917C136.121 54.9168 134.989 53.6475 133.008 53.6475C131.063 53.6475 129.914 54.7934 129.312 56.5035C128.163 59.8179 128.234 63.1676 129.878 66.2352C130.426 67.2577 131.912 68.1216 133.115 68.386C134.795 68.7562 136.086 67.5927 136.616 66.006C137.094 64.578 137.27 63.0442 137.589 61.5104V61.528Z" fill="#D9DFE8"/>
</g>
<g filter="url(#filter4_d_61_195)">
<path d="M226.17 29.7768C228.169 27.1499 230.167 24.5055 232.272 21.7376C231.405 20.8209 230.68 20.0452 229.407 18.6877C233.828 18.2117 237.577 18.3703 241.68 18.8816C237.612 20.9443 238.567 24.4702 238.532 27.6612C238.514 30.0412 238.532 32.4213 238.532 34.6779C239.664 35.577 240.601 36.2998 242.246 37.6044C237.701 38.2567 234.022 38.0099 229.619 37.816C233.492 34.5192 231.953 30.6759 231.582 26.6916C229.477 29.336 227.391 31.9805 225.286 34.6602C226.17 35.6475 226.86 36.4232 227.992 37.7102H215.666C216.479 36.864 216.815 36.2645 217.31 36.053C218.92 35.3654 219.114 34.0961 219.079 32.5975C219.026 30.482 219.079 28.384 219.079 26.2685C219.079 23.3654 218.1 21.0148 216.143 19.2165C218.849 18.2293 223.182 18.1059 227.833 19.0226C223.889 21.9139 225.587 25.8277 225.375 29.3889C225.658 29.53 225.94 29.671 226.223 29.812L226.17 29.7768Z" fill="#D9DFE8"/>
</g>
<g filter="url(#filter5_d_61_195)">
<path d="M255.315 18.7052C253.033 20.9265 253.051 23.4829 253.652 26.4799H259.559C260.673 23.7649 260.372 21.2791 257.543 19.3575C260.337 18.1939 264.068 18.0529 269.621 18.8815C268.348 19.9217 267.375 20.7326 266.279 21.6494V34.8717C267.163 35.5064 268.153 36.2116 269.144 36.8991C269.02 37.2341 268.914 37.6748 268.826 37.6925C265.218 37.7277 261.61 37.7277 257.207 37.7277C260.213 35.2596 260.496 32.5269 259.7 29.1949H253.67C253.122 32.2449 252.75 35.0656 256.216 37.5162C251.76 38.3095 248.064 37.9745 243.324 37.7982C245.004 36.4408 245.977 35.6474 247.197 34.6601C247.197 32.4741 247.215 30.094 247.197 27.714C247.162 24.5054 248.152 20.9442 244.209 18.7405H255.315V18.7052Z" fill="#D9DFE8"/>
</g>
<g filter="url(#filter6_d_61_195)">
<path d="M306.865 37.8511C304.124 34.8893 305.256 29.6708 300.145 29.0362C298.695 33.7433 298.836 34.2722 301.966 37.1106C299.455 38.1684 295.299 38.3271 289.658 37.4808C290.984 36.423 291.992 35.6297 293.212 34.6601C293.212 32.1743 293.248 29.4945 293.212 26.8325C293.159 23.8883 294.344 20.4328 288.897 19.4456C293.195 18.2115 297.899 18.1057 302.868 18.9167C301.613 19.9392 300.622 20.7502 299.544 21.614V26.427C301.86 27.3261 303.24 26.427 304.212 24.5758C304.531 23.9588 304.778 23.2889 305.079 22.6542C307.077 18.4407 308.209 17.8765 313.284 18.6522V23.712C311.728 23.042 310.473 22.5132 308.863 21.8256C308.05 23.5004 307.166 25.3515 306.14 27.4671C308.704 28.9304 310.366 31.187 311.357 34.0607C311.781 35.2947 312.984 36.2644 313.939 37.4632C311.852 38.5739 309.27 37.7982 306.865 37.8334V37.8511Z" fill="#D9DFE8"/>
</g>
<g filter="url(#filter7_d_61_195)">
<path d="M337.388 37.0401C339.263 36.0352 340.872 34.9246 341.597 32.6503C342.057 31.187 343.383 29.9882 344.462 28.4897C344.108 28.2781 343.542 27.9079 342.977 27.5553C341.226 26.4799 340.536 24.9108 340.819 22.901C341.12 20.856 342.464 19.7277 344.321 19.093C344.851 18.9167 345.399 18.617 345.93 18.617C351.218 18.5817 356.488 18.5994 362.606 18.5994C361.634 19.569 361.28 20.1508 360.785 20.38C359.246 21.0323 358.84 22.1782 358.857 23.7296C358.91 27.379 358.875 31.0107 358.875 34.7483C359.954 35.5063 360.962 36.1939 362.023 36.952C359.529 38.2037 355.515 38.3976 350.227 37.4632C353.11 35.2595 353.021 32.5093 352.367 29.4241C346.637 29.4241 347.981 34.9422 345.311 37.7277C342.959 37.6924 340.094 39.1204 337.477 36.9343L337.371 37.0578L337.388 37.0401ZM352.473 20.6621C348.388 20.5915 346.938 21.473 346.903 23.8178C346.867 26.286 348.706 27.379 352.473 26.9735V20.6621Z" fill="#D9DFE8"/>
</g>
<g filter="url(#filter8_d_61_195)">
<path d="M121.107 12.5173C121.107 13.9982 121.142 15.3733 121.107 16.766C121.089 17.4183 120.895 18.0706 120.753 18.8816C117.287 18.6172 118.277 15.0207 116.332 13.7161C109.665 12.958 105.438 16.1314 104.802 22.6896C104.607 24.7699 104.642 26.9384 105.049 28.9658C105.792 32.7739 108.268 35.101 112.141 35.8238C115.642 36.4937 116.456 36.0706 118.047 32.8973C118.578 31.8395 118.684 30.3057 120.842 30.5701C121.885 32.4389 120.859 34.4663 120.965 36.6172C115.766 38.768 110.584 39.2616 105.332 37.2871C103.794 36.7053 102.273 35.7357 101.141 34.5721C94.9691 28.2254 97.4626 15.9374 105.597 12.4644C110.638 10.3135 115.731 10.7543 121.107 12.5173Z" fill="#D9DFE8"/>
</g>
<g filter="url(#filter9_d_61_195)">
<path d="M108.091 70.9598C101.477 70.8187 97.7102 67.0636 97.834 60.7169C97.9578 54.3349 102.414 50.3506 109.258 50.474C115.748 50.5974 119.674 54.5288 119.515 60.7698C119.356 67.2223 115.006 71.1008 108.091 70.9422V70.9598ZM113.485 60.8403C113.043 59.0068 112.76 57.2086 112.176 55.5161C111.646 54.0176 110.585 52.8893 108.763 52.8716C106.8 52.8364 105.598 53.9118 104.961 55.6219C103.635 59.2007 103.776 62.8325 105.438 66.1997C105.951 67.2399 107.437 68.139 108.639 68.4211C110.302 68.8089 111.663 67.6983 112.229 66.1292C112.83 64.4368 113.078 62.6385 113.502 60.8403H113.485Z" fill="#D9DFE8"/>
</g>
<g filter="url(#filter10_d_61_195)">
<path d="M233.368 69.567C236.693 68.5092 236.675 66.0058 236.587 63.379C236.498 60.2937 236.569 57.2085 236.569 54.0352C235.49 53.2947 234.482 52.5895 233.527 51.9372C233.916 50.4563 242.087 50.3329 245.853 51.567C243.814 53.2712 242.941 55.6865 243.236 58.8128C244.403 58.8834 245.641 58.9186 246.861 59.042C248.241 59.2007 249.673 59.2712 251 59.6767C253.635 60.5053 255.067 62.568 254.979 64.9656C254.89 67.4338 253.334 69.2497 250.681 70.043C248.011 70.8364 236.711 70.7129 233.386 69.5317L233.368 69.567ZM243.271 61.4044V68.1566C247.215 68.0685 248.382 67.328 248.506 65.0185C248.648 62.4622 247.427 61.5631 243.271 61.3868V61.4044Z" fill="#D9DFE8"/>
</g>
<g filter="url(#filter11_d_61_195)">
<path d="M151.4 54C150.286 53.2243 149.278 52.5191 148.146 51.7434C151.117 50.6151 162.489 50.4212 167.847 51.4085C167.14 52.0784 166.521 52.5015 166.132 53.0657C165.566 53.9295 164.823 54.8639 164.735 55.8335C164.522 58.0725 164.699 60.3291 164.646 62.5857C164.575 65.4065 164.275 68.2802 168.024 69.5142C164.964 70.8188 159.747 70.9599 155.008 69.9021C156.193 68.9148 157.183 68.0862 158.209 67.24V53.2067H154.424C154.035 56.5035 153.717 59.5534 153.328 62.6034C153.187 63.714 152.992 64.8423 152.638 65.9001C151.277 69.9021 149.278 71.0128 144.238 70.4662C144.132 69.7258 143.973 68.9325 143.938 68.1215C143.92 67.4339 144.061 66.764 144.203 65.4065C145.794 66.1293 147.05 66.6935 148.323 67.2753C150.746 64.5074 151.365 61.9334 151.4 54Z" fill="#D9DFE8"/>
</g>
<g filter="url(#filter12_d_61_195)">
<path d="M187.76 66.8168C188.998 67.5043 189.953 68.0509 190.872 68.5621C190.076 70.8893 184.913 71.3124 181.995 69.5847C179.766 70.0254 177.75 70.7306 175.717 70.7658C172.551 70.8187 170.447 68.7561 170.27 66.0234C170.093 63.3613 171.632 61.5278 174.744 60.7698C175.84 60.5053 176.972 60.4172 178.086 60.2232C179.183 60.0293 180.262 59.8177 181.676 59.5533C181.676 58.0724 181.889 56.6444 181.606 55.3222C181.411 54.3701 180.721 53.0655 179.961 52.8187C179.254 52.5895 177.68 53.33 177.326 54.0528C176.229 56.3094 174.691 56.7149 172.286 55.8687V52.3251C175.681 50.8089 179.112 50.1743 182.667 50.5445C186.221 50.9147 187.654 52.4485 187.76 56.0097C187.848 59.518 187.777 63.0264 187.777 66.7991L187.76 66.8168ZM181.393 67.2046V62.1096C177.379 62.3388 176.141 63.1145 176.265 65.0891C176.389 66.9754 177.644 67.522 181.393 67.2046Z" fill="#D9DFE8"/>
</g>
<g filter="url(#filter13_d_61_195)">
<path d="M337.477 36.9167C336.398 37.2164 335.284 37.4632 334.223 37.8511C331.818 38.715 329.536 38.7678 327.679 36.952C326.265 37.4632 325.062 38.2566 323.895 38.2213C322.003 38.1508 319.828 38.0098 318.324 37.0578C314.982 34.9246 315.76 30.0235 319.615 28.7189C321.985 27.9079 324.567 27.7316 327.573 27.1674C327.626 25.6865 327.874 24.047 327.662 22.4603C327.556 21.6493 326.795 20.6621 326.07 20.2742C324.921 19.6748 323.86 20.3095 323.364 21.5083C322.392 23.8354 320.694 24.1351 318.554 23.3594C317.935 19.7982 317.9 19.6219 320.906 19.0049C323.506 18.476 326.212 18.0881 328.847 18.2292C332.49 18.4231 333.763 20.0098 333.834 23.6944C333.904 27.2027 333.834 30.711 333.834 33.8491C335.213 35.1008 336.292 36.0705 337.371 37.0225L337.477 36.8991V36.9167ZM327.609 29.4769C325.54 29.4241 323.647 29.4064 322.728 31.3457C322.392 32.0509 322.516 33.4084 322.993 34.0078C324.16 35.4711 325.805 35.5063 327.609 34.6954V29.4769Z" fill="#D9DFE8"/>
</g>
<g filter="url(#filter14_d_61_195)">
<path d="M144.327 37.7453C143.266 37.8334 142.098 37.6572 141.179 38.0626C138.774 39.1028 136.899 37.428 134.812 37.2164C132.849 37.0225 130.745 38.38 128.747 38.2742C125.811 38.1155 123.972 35.8589 123.936 33.3202C123.901 30.8697 125.298 29.2477 128.305 28.4192C129.383 28.1194 130.515 27.9431 131.612 27.7668C132.708 27.5905 133.804 27.4848 135.343 27.2908C135.343 25.5279 135.537 23.8707 135.255 22.2664C135.131 21.4906 134.247 20.4681 133.521 20.2918C132.832 20.1332 131.47 20.7149 131.169 21.332C130.108 23.4652 128.641 24.188 126.395 23.4828C125.422 19.8863 125.369 19.6571 128.393 19.0754C131.258 18.5288 134.247 18.1762 137.147 18.3702C140.171 18.5641 141.267 20.0979 141.373 23.1302C141.479 26.0744 141.444 29.0362 141.391 31.9804C141.373 33.6376 141.497 35.0479 143.584 35.4182C145.052 35.6826 144.557 36.8286 144.344 37.7629L144.327 37.7453ZM135.201 29.5651C133.115 29.3006 131.311 29.424 130.391 31.3104C130.038 32.0333 130.161 33.4084 130.639 34.0254C131.806 35.5063 133.468 35.4358 135.201 34.713V29.5827V29.5651Z" fill="#D9DFE8"/>
</g>
<g filter="url(#filter15_d_61_195)">
<path d="M144.344 37.763C147.793 35.3301 150.958 32.6151 153.328 28.7542C151.613 25.0872 149.243 21.7728 145.069 18.7405H156.547C156.44 19.1283 156.387 19.6044 156.193 20.0275C156.016 20.3977 155.68 20.6798 155.203 21.2263C156.016 22.4251 156.865 23.6768 157.731 24.9638C159.836 23.1832 161.215 21.4555 158.863 18.6523H166.98C164.239 21.4907 161.781 24.0294 159.128 26.7797C161.763 30.6406 163.762 34.5897 168.324 37.4809C163.974 38.3095 160.455 37.9217 156.829 37.9393C157.525 35.7415 156.841 33.4555 154.778 31.0813C153.487 33.1616 150.127 34.2723 153.31 37.7454C149.879 37.7454 147.121 37.7454 144.344 37.7454V37.763Z" fill="#D9DFE8"/>
</g>
<g filter="url(#filter16_d_61_195)">
<path d="M228.151 70.3075H214.729C215.878 69.285 216.515 68.8619 216.939 68.2977C217.541 67.4691 218.407 66.5347 218.442 65.618C218.602 61.5632 218.513 57.4907 218.513 53.5063C216.108 52.4309 214.799 52.9775 214.021 55.2164C213.508 56.6973 213.314 56.6268 211.209 57.0147V50.9853C218.089 50.6856 224.915 50.8442 231.918 50.9148V56.9618C229.884 57.6846 229.442 56.3095 229.089 55.1283C228.452 53.0303 227.161 52.5367 224.667 53.4182C224.667 57.5259 224.437 61.8629 224.809 66.1469C224.915 67.4339 226.701 68.5798 228.151 70.3075Z" fill="#D9DFE8"/>
</g>
<g filter="url(#filter17_d_61_195)">
<path d="M287.553 19.4984V23.3946C284.034 25.5102 283.291 22.2134 281.859 20.5915C277.597 21.8256 275.899 24.4877 276.324 29.1419C276.571 31.8569 277.615 34.2546 280.373 34.9597C282.602 35.5415 285.042 35.33 287.447 35.4886C285.555 38.5386 278.676 39.4553 274.644 37.2869C270.276 34.9421 268.596 29.4064 270.735 24.4348C273.105 18.899 279.701 16.854 287.571 19.4984H287.553Z" fill="#D9DFE8"/>
</g>
<g filter="url(#filter18_d_61_195)">
<path d="M209.441 51.955C209.494 53.1714 209.565 54.5289 209.618 55.8159C207.283 56.2743 205.373 55.4163 203.888 53.242C199.944 53.8414 198.229 56.0275 198.229 60.4878C198.229 63.3262 198.883 66.1469 201.73 67.1166C204.118 67.9452 206.859 67.7689 209.441 68.0333C207.425 70.9422 200.528 71.8414 196.567 69.7082C192.181 67.3458 190.518 61.7924 192.711 56.8384C195.17 51.285 201.359 49.3987 209.441 51.9373V51.955Z" fill="#D9DFE8"/>
</g>
<g filter="url(#filter19_d_61_195)">
<path d="M439.375 70.1313H435.378C435.52 67.5574 435.643 65.0716 435.767 62.5858C433.309 64.6837 430.656 66.3938 430.816 70.0256H426.748C427.102 65.9178 427.721 61.863 426.324 57.6495H430.639C430.462 60.0824 430.267 62.5505 430.091 65.0187C432.69 63.0089 435.307 61.3165 434.795 57.6318H439.304C438.367 61.6867 438.19 65.7063 439.357 70.1137L439.375 70.1313Z" fill="#D9DFE8"/>
</g>
<path d="M336.822 83.0361C338.219 84.2879 339.316 85.4162 338.609 87.1968C337.866 89.0479 336.327 89.5415 334.506 89.5415C332.56 89.5415 330.597 89.5415 328.688 89.5415V76.8128C330.173 76.8128 331.995 76.7423 333.798 76.8128C338.131 77.0244 339.033 78.8403 336.822 83.0009V83.0361ZM332.454 88.4309C334.718 88.6424 335.62 87.7257 335.514 86.0508C335.425 84.4113 334.417 83.565 332.454 83.8295V88.4309ZM332.454 82.6659C334.842 82.2428 335.213 80.9382 334.771 79.4926C334.576 78.8579 333.621 78.4524 332.454 77.4828V82.6836V82.6659Z" fill="#D9DFE8"/>
<path d="M355.656 76.8306C357.301 76.8306 358.999 76.7777 360.679 76.8306C365.012 77.0246 365.967 78.7699 364.357 82.0314C364.764 84.3585 365.542 86.0863 365.206 87.5672C364.782 89.4535 362.73 89.5593 360.98 89.5593C359.158 89.5593 357.354 89.5593 355.656 89.5593V76.8306ZM359.423 88.2547C361.475 88.8718 362.394 87.8492 362.447 86.3154C362.518 84.5877 361.528 83.5652 359.423 83.8297V88.2547ZM359.423 82.8071C361.687 82.1019 362.288 80.9384 361.775 79.4575C361.563 78.8228 360.59 78.4526 359.423 77.5358V82.8071Z" fill="#D9DFE8"/>
<g filter="url(#filter20_d_61_195)">
<path d="M420.753 60.3115C420.435 61.0872 420.01 62.1097 419.763 62.7444C421.124 65.2302 422.309 67.381 423.6 69.7434C421.39 70.572 419.993 70.4134 419.232 68.0686C418.702 66.4114 418.401 64.3663 415.731 64.4016V69.9726H411.964V57.7375H415.961C415.801 59.4476 415.66 61.1577 415.501 62.8502C415.801 63.0089 416.12 63.1499 416.42 63.3086C417.181 62.4623 418.012 61.669 418.666 60.7522C419.232 59.9589 419.409 58.7424 420.116 58.2664C420.895 57.7375 422.115 57.7904 423.123 57.7904C423.247 57.7904 423.636 59.5005 423.459 59.571C422.698 59.9589 421.796 60.0471 420.735 60.2939L420.753 60.3115Z" fill="#D9DFE8"/>
</g>
<path d="M353.64 83.1421C353.605 87.1793 350.811 89.9472 346.726 90.0001C343.083 90.0354 340.306 87.338 340.253 83.7063C340.182 79.5809 343.26 76.6015 347.468 76.7249C351.288 76.8307 353.676 79.3165 353.64 83.1598V83.1421ZM350.263 83.1421C350.227 80.1627 348.954 78.0119 347.15 77.8356C345.258 77.6593 343.578 80.1451 343.542 83.1421C343.507 86.1744 345.028 88.5897 346.991 88.5897C349.042 88.5897 350.316 86.4565 350.28 83.1421H350.263Z" fill="#D9DFE8"/>
<path d="M274.714 83.0362C274.714 87.1263 271.92 89.9647 267.8 90C264.104 90.0176 261.327 87.2673 261.327 83.6004C261.327 79.5808 264.28 76.6895 268.33 76.7071C272.239 76.7247 274.697 79.1753 274.697 83.0362H274.714ZM271.337 83.1067C271.284 80.1097 270.01 77.9765 268.206 77.8354C266.296 77.6944 264.687 80.1273 264.67 83.1772C264.67 86.333 266.102 88.6072 268.1 88.5896C270.116 88.572 271.39 86.4035 271.337 83.1067Z" fill="#D9DFE8"/>
<path d="M320.747 76.707C324.549 76.9186 326.884 79.5807 326.672 83.4769C326.459 87.4612 323.365 90.2114 319.315 89.9999C315.619 89.7883 313.231 87.0204 313.426 83.1595C313.62 79.1047 316.609 76.4778 320.747 76.7247V76.707ZM316.715 82.6483C316.715 83.0714 316.697 83.4769 316.715 83.9C316.91 86.7384 318.165 88.5542 319.934 88.6071C321.773 88.66 323.029 86.9676 323.258 84.0587C323.294 83.6532 323.329 83.2301 323.294 82.8069C323.152 79.8275 321.702 77.7296 319.845 77.8353C318.112 77.9235 316.874 79.8099 316.698 82.6483H316.715Z" fill="#D9DFE8"/>
<g filter="url(#filter21_d_61_195)">
<path d="M288.332 70.0254C289.251 65.759 289.428 61.8275 288.155 57.6845H292.594C292.399 59.3241 292.187 61.0166 291.992 62.7267C292.258 62.9029 292.541 63.0792 292.806 63.2555C293.531 62.6209 294.38 62.0743 294.946 61.3163C295.6 60.4171 295.777 59.0949 296.573 58.425C297.28 57.8256 298.536 57.8608 299.561 57.614C299.72 58.4779 299.88 59.3241 300.074 60.3819C298.978 60.188 298.341 60.0646 297.545 59.9235C297.032 61.1223 296.537 62.2683 296.29 62.8324C297.722 65.3887 298.925 67.5219 300.18 69.7433C297.881 70.66 296.467 70.3251 295.777 67.9451C295.317 66.3936 294.963 64.5778 292.399 64.2604V70.0077H288.332V70.0254Z" fill="#D9DFE8"/>
</g>
<g filter="url(#filter22_d_61_195)">
<path d="M317.405 73.1989C316.733 71.2244 316.963 70.1666 318.13 68.7033C320.571 65.6358 321.879 61.9159 320.429 57.6318H329.218C327.131 62.9031 328.582 67.9453 329.749 73.2342C328.369 69.9374 325.787 70.2371 323.259 70.149C320.747 70.0608 318.466 70.149 317.405 73.1813V73.1989ZM324.797 69.003C325.929 62.5329 325.54 59.8885 323.17 58.9364C322.304 62.2508 321.455 65.5476 320.553 69.003H324.797Z" fill="#D9DFE8"/>
</g>
<g filter="url(#filter23_d_61_195)">
<path d="M442.081 57.5964H446.802C447.209 58.901 447.598 60.1175 448.058 61.5631C450.162 60.6993 450.64 59.4476 450.145 57.667H453.912C452.338 59.5886 451.029 61.1929 449.455 63.1498C450.887 65.3183 452.338 67.4867 454 69.9902C452.514 70.096 451.188 70.1841 449.933 70.2722C449.19 68.7208 448.5 67.3104 447.457 65.142C446.36 67.1518 445.635 68.4564 444.751 70.0607H441.868C443.531 67.9275 444.946 66.1293 446.502 64.1371C445.069 62.0215 443.761 60.0822 442.098 57.5964H442.081Z" fill="#D9DFE8"/>
</g>
<g filter="url(#filter24_d_61_195)">
<path d="M366.108 65.4065C366.267 66.9755 366.426 68.333 366.603 70.0255C365.454 70.0784 364.11 70.1489 362.659 70.237V57.6494C364.605 57.6494 366.851 57.5083 369.044 57.7023C370.865 57.8609 372.227 58.8482 372.315 60.9285C372.404 62.9383 371.272 64.0842 369.521 64.666C368.495 65.0186 367.399 65.1244 366.09 65.4065H366.108ZM366.444 63.9432C368.92 63.4672 369.291 62.1273 369.026 60.4878C368.831 59.2008 368.071 58.5661 366.444 59.0598V63.9432Z" fill="#D9DFE8"/>
</g>
<g filter="url(#filter25_d_61_195)">
<path d="M261.451 67.4162C265.572 70.4309 267.853 69.7433 269.25 65.0186C267.588 63.044 266.332 65.6885 264.687 65.4593V62.1802C266.279 62.5856 267.729 62.9559 269.445 63.3966C269.356 60.7345 268.437 59.4299 266.456 58.7247C264.316 57.949 263.503 59.5357 262.282 61.281C261.681 59.5709 261.239 58.3898 262.919 57.8256C265.572 56.9265 268.242 56.9265 270.612 58.6189C272.645 60.0822 273.141 62.2507 272.893 64.6307C272.398 69.1968 266.615 72.2291 262.583 69.9373C261.946 69.567 261.84 68.2624 261.487 67.3986L261.451 67.4162Z" fill="#D9DFE8"/>
</g>
<path d="M301.931 76.8482C304.23 76.8482 306.175 76.76 308.121 76.8658C310.048 76.9892 311.728 77.6239 312.082 79.8805C312.4 81.9608 311.41 83.3359 308.916 84.1116C308.138 84.3584 307.289 84.4113 306.016 84.6229C306.14 86.1743 306.281 87.7081 306.405 89.3829H302.462C302.674 85.3104 303.346 81.238 301.913 76.8482H301.931ZM306.299 78.2056V83.1244C308.439 83.0891 308.987 81.8903 308.952 80.3917C308.916 79.0342 308.35 77.9588 306.299 78.2056Z" fill="#D9DFE8"/>
<g filter="url(#filter26_d_61_195)">
<path d="M408.851 60.77C406.146 58.3723 404.324 58.196 402.662 59.9942C400.787 62.004 400.805 66.2704 402.715 68.1039C404.466 69.814 406.27 69.4791 408.975 66.8875C409.488 68.1745 409.718 69.2851 408.144 70.008C405.368 71.2949 400.911 70.4311 399.213 68.2097C397.516 66.006 397.551 62.2156 399.284 59.9414C401.07 57.5966 405.385 56.5212 408.126 57.72C409.453 58.3018 409.612 59.2185 408.851 60.77Z" fill="#D9DFE8"/>
</g>
<g filter="url(#filter27_d_61_195)">
<path d="M396.737 67.2224C396.348 68.1215 396.207 69.4966 395.535 69.8139C392.988 70.9951 390.283 70.9599 387.842 69.479C385.561 68.0862 384.871 65.7767 385.189 63.2557C385.561 60.3291 387.241 58.2664 390.159 57.667C391.75 57.3497 393.519 57.4731 395.146 57.7552C396.49 57.9843 396.826 59.0774 396.172 60.3291C395.889 60.4173 395.446 60.5936 395.411 60.5407C394.279 58.619 392.723 58.1783 390.795 59.2537C389.08 60.2057 388.09 62.8325 388.549 65.2126C388.903 67.1166 389.787 68.5799 391.857 69.144C393.996 69.7434 394.828 68.2625 395.659 66.6582C396.03 66.8521 396.384 67.0461 396.755 67.24L396.737 67.2224Z" fill="#D9DFE8"/>
</g>
<g filter="url(#filter28_d_61_195)">
<path d="M377.196 57.4553C377.992 59.5356 378.717 61.3691 379.424 63.2026L380.432 63.2379C381.016 61.422 381.6 59.6062 382.236 57.6493H384.8C383.244 60.9284 381.759 64.0665 380.256 67.187C379.513 68.756 378.593 70.2017 376.701 70.4661C374.897 70.7305 374.437 69.7962 375.039 67.945C375.976 68.0508 376.931 68.1566 378.346 68.3153C377.497 64.1194 375.021 61.2457 373.005 57.6845C374.614 57.5964 376.047 57.5258 377.196 57.4729V57.4553Z" fill="#D9DFE8"/>
</g>
<g filter="url(#filter29_d_61_195)">
<path d="M335.85 65.2301C336.08 67.0283 336.257 68.474 336.469 70.0606H332.313C333.162 65.8119 333.374 61.7394 332.083 57.5611C334.294 57.5611 336.433 57.4025 338.52 57.5964C340.925 57.8432 342.181 59.1125 342.287 60.9108C342.393 62.6561 341.191 64.1194 339.015 64.7541C338.22 64.9833 337.371 65.0009 335.867 65.2125L335.85 65.2301ZM336.239 64.0313C338.803 63.3966 339.316 62.0567 338.909 60.3995C338.644 59.2536 337.848 58.4602 336.239 59.1302V64.0313Z" fill="#D9DFE8"/>
</g>
<g filter="url(#filter30_d_61_195)">
<path d="M285.29 60.717C282.69 58.3899 280.993 58.1607 279.295 59.9061C277.438 61.8101 277.403 66.2175 279.224 68.051C280.957 69.7787 282.761 69.479 285.59 66.8875V69.8493C284.123 70.0961 282.637 70.5368 281.152 70.5368C277.243 70.5368 274.874 68.4213 274.573 64.8953C274.237 60.9286 276.448 58.0197 280.338 57.4555C281.435 57.2969 282.584 57.3674 283.698 57.5084C285.75 57.7729 286.263 58.9012 285.29 60.7347V60.717Z" fill="#D9DFE8"/>
</g>
<path d="M287.801 80.5329C284.476 77.5358 282.849 77.3948 281.063 79.2812C279.171 81.2733 279.206 85.6279 281.134 87.4437C282.973 89.1891 284.812 88.8365 286.97 86.3507C287.182 86.4917 287.553 86.6328 287.553 86.7914C287.571 87.479 287.483 88.1666 287.447 88.7836C281.594 90.7581 277.632 89.4535 276.554 85.2577C275.51 81.2557 277.951 77.3243 282.018 76.8306C283.645 76.6367 285.36 76.9717 286.97 77.3595C287.323 77.4477 287.376 78.7875 287.819 80.5329H287.801Z" fill="#D9DFE8"/>
<g filter="url(#filter31_d_61_195)">
<path d="M309.801 57.3496C311.516 61.4574 313.231 65.5651 315.106 70.0254C313.691 70.1136 312.383 70.1841 311.109 70.2546C310.809 68.7208 310.561 67.4162 310.313 66.1998C305.875 65.4417 305.521 65.7062 305.521 69.9902H302.603C304.654 65.6004 306.617 61.3869 308.58 57.1733L309.801 57.332V57.3496ZM306.83 64.3663C308.622 64.2252 309.022 63.332 308.032 61.6866C307.678 62.4975 307.36 63.2027 306.83 64.3663Z" fill="#D9DFE8"/>
</g>
<g filter="url(#filter32_d_61_195)">
<path d="M344.621 70.1841C343.489 70.0959 342.694 70.043 341.756 69.9725C343.79 65.5651 345.7 61.4221 347.928 56.6091C351.412 60.8755 351.642 65.9176 354.648 70.0078H350.227C349.891 68.7384 349.679 67.3986 349.131 66.235C348.954 65.8471 347.893 65.7237 347.239 65.7061C345.063 65.6708 344.727 66.235 344.621 70.1841ZM346.513 61.3692C346.673 62.9206 346.761 63.7316 346.832 64.5425C347.221 64.5073 347.822 64.5954 347.964 64.3839C348.742 63.2379 348.176 62.5151 346.496 61.3692H346.513Z" fill="#D9DFE8"/>
</g>
<path d="M291.975 89.4007C293.761 85.6455 292.947 81.9256 292.77 77.4829C291.196 78.6113 290.295 79.2636 289.145 80.0922V76.9717H299.72C299.844 77.8708 299.968 78.7699 300.18 80.3213C298.836 79.2812 297.987 78.6289 296.396 77.3948C296.024 81.8375 295.405 85.5397 297.015 89.4007H291.975Z" fill="#D9DFE8"/>
</g>
<defs>
<filter id="filter0_d_61_195" x="0" y="0" width="458" height="103" filterUnits="userSpaceOnUse" color-interpolation-filters="sRGB">
<feFlood flood-opacity="0" result="BackgroundImageFix"/>
<feColorMatrix in="SourceAlpha" type="matrix" values="0 0 0 0 0 0 0 0 0 0 0 0 0 0 0 0 0 0 127 0" result="hardAlpha"/>
<feOffset dy="9"/>
<feGaussianBlur stdDeviation="2"/>
<feComposite in2="hardAlpha" operator="out"/>
<feColorMatrix type="matrix" values="0 0 0 0 0 0 0 0 0 0 0 0 0 0 0 0 0 0 0.25 0"/>
<feBlend mode="normal" in2="BackgroundImageFix" result="effect1_dropShadow_61_195"/>
<feBlend mode="normal" in="SourceGraphic" in2="effect1_dropShadow_61_195" result="shape"/>
</filter>
<filter id="filter1_d_61_195" x="-0.00170898" y="0.00366211" width="88.5496" height="88.9102" filterUnits="userSpaceOnUse" color-interpolation-filters="sRGB">
<feFlood flood-opacity="0" result="BackgroundImageFix"/>
<feColorMatrix in="SourceAlpha" type="matrix" values="0 0 0 0 0 0 0 0 0 0 0 0 0 0 0 0 0 0 127 0" result="hardAlpha"/>
<feOffset dy="9"/>
<feGaussianBlur stdDeviation="2"/>
<feComposite in2="hardAlpha" operator="out"/>
<feColorMatrix type="matrix" values="0 0 0 0 0 0 0 0 0 0 0 0 0 0 0 0 0 0 0.25 0"/>
<feBlend mode="normal" in2="BackgroundImageFix" result="effect1_dropShadow_61_195"/>
<feBlend mode="normal" in="SourceGraphic" in2="effect1_dropShadow_61_195" result="shape"/>
</filter>
<filter id="filter2_d_61_195" x="164.624" y="18.3242" width="52.8848" height="30.2683" filterUnits="userSpaceOnUse" color-interpolation-filters="sRGB">
<feFlood flood-opacity="0" result="BackgroundImageFix"/>
<feColorMatrix in="SourceAlpha" type="matrix" values="0 0 0 0 0 0 0 0 0 0 0 0 0 0 0 0 0 0 127 0" result="hardAlpha"/>
<feOffset dy="6"/>
<feGaussianBlur stdDeviation="2"/>
<feComposite in2="hardAlpha" operator="out"/>
<feColorMatrix type="matrix" values="0 0 0 0 0 0 0 0 0 0 0 0 0 0 0 0 0 0 0.35 0"/>
<feBlend mode="normal" in2="BackgroundImageFix" result="effect1_dropShadow_61_195"/>
<feBlend mode="normal" in="SourceGraphic" in2="effect1_dropShadow_61_195" result="shape"/>
</filter>
<filter id="filter3_d_61_195" x="118.185" y="41.4653" width="29.7261" height="39.5432" filterUnits="userSpaceOnUse" color-interpolation-filters="sRGB">
<feFlood flood-opacity="0" result="BackgroundImageFix"/>
<feColorMatrix in="SourceAlpha" type="matrix" values="0 0 0 0 0 0 0 0 0 0 0 0 0 0 0 0 0 0 127 0" result="hardAlpha"/>
<feOffset dy="6"/>
<feGaussianBlur stdDeviation="2"/>
<feComposite in2="hardAlpha" operator="out"/>
<feColorMatrix type="matrix" values="0 0 0 0 0 0 0 0 0 0 0 0 0 0 0 0 0 0 0.35 0"/>
<feBlend mode="normal" in2="BackgroundImageFix" result="effect1_dropShadow_61_195"/>
<feBlend mode="normal" in="SourceGraphic" in2="effect1_dropShadow_61_195" result="shape"/>
</filter>
<filter id="filter4_d_61_195" x="211.666" y="18.4006" width="34.5798" height="29.627" filterUnits="userSpaceOnUse" color-interpolation-filters="sRGB">
<feFlood flood-opacity="0" result="BackgroundImageFix"/>
<feColorMatrix in="SourceAlpha" type="matrix" values="0 0 0 0 0 0 0 0 0 0 0 0 0 0 0 0 0 0 127 0" result="hardAlpha"/>
<feOffset dy="6"/>
<feGaussianBlur stdDeviation="2"/>
<feComposite in2="hardAlpha" operator="out"/>
<feColorMatrix type="matrix" values="0 0 0 0 0 0 0 0 0 0 0 0 0 0 0 0 0 0 0.35 0"/>
<feBlend mode="normal" in2="BackgroundImageFix" result="effect1_dropShadow_61_195"/>
<feBlend mode="normal" in="SourceGraphic" in2="effect1_dropShadow_61_195" result="shape"/>
</filter>
<filter id="filter5_d_61_195" x="239.324" y="18.3545" width="34.2969" height="29.6665" filterUnits="userSpaceOnUse" color-interpolation-filters="sRGB">
<feFlood flood-opacity="0" result="BackgroundImageFix"/>
<feColorMatrix in="SourceAlpha" type="matrix" values="0 0 0 0 0 0 0 0 0 0 0 0 0 0 0 0 0 0 127 0" result="hardAlpha"/>
<feOffset dy="6"/>
<feGaussianBlur stdDeviation="2"/>
<feComposite in2="hardAlpha" operator="out"/>
<feColorMatrix type="matrix" values="0 0 0 0 0 0 0 0 0 0 0 0 0 0 0 0 0 0 0.35 0"/>
<feBlend mode="normal" in2="BackgroundImageFix" result="effect1_dropShadow_61_195"/>
<feBlend mode="normal" in="SourceGraphic" in2="effect1_dropShadow_61_195" result="shape"/>
</filter>
<filter id="filter6_d_61_195" x="284.897" y="18.3572" width="33.0413" height="29.707" filterUnits="userSpaceOnUse" color-interpolation-filters="sRGB">
<feFlood flood-opacity="0" result="BackgroundImageFix"/>
<feColorMatrix in="SourceAlpha" type="matrix" values="0 0 0 0 0 0 0 0 0 0 0 0 0 0 0 0 0 0 127 0" result="hardAlpha"/>
<feOffset dy="6"/>
<feGaussianBlur stdDeviation="2"/>
<feComposite in2="hardAlpha" operator="out"/>
<feColorMatrix type="matrix" values="0 0 0 0 0 0 0 0 0 0 0 0 0 0 0 0 0 0 0.35 0"/>
<feBlend mode="normal" in2="BackgroundImageFix" result="effect1_dropShadow_61_195"/>
<feBlend mode="normal" in="SourceGraphic" in2="effect1_dropShadow_61_195" result="shape"/>
</filter>
<filter id="filter7_d_61_195" x="333.371" y="18.595" width="33.2358" height="29.5586" filterUnits="userSpaceOnUse" color-interpolation-filters="sRGB">
<feFlood flood-opacity="0" result="BackgroundImageFix"/>
<feColorMatrix in="SourceAlpha" type="matrix" values="0 0 0 0 0 0 0 0 0 0 0 0 0 0 0 0 0 0 127 0" result="hardAlpha"/>
<feOffset dy="6"/>
<feGaussianBlur stdDeviation="2"/>
<feComposite in2="hardAlpha" operator="out"/>
<feColorMatrix type="matrix" values="0 0 0 0 0 0 0 0 0 0 0 0 0 0 0 0 0 0 0.35 0"/>
<feBlend mode="normal" in2="BackgroundImageFix" result="effect1_dropShadow_61_195"/>
<feBlend mode="normal" in="SourceGraphic" in2="effect1_dropShadow_61_195" result="shape"/>
</filter>
<filter id="filter8_d_61_195" x="93.6929" y="11.0173" width="31.6211" height="37.5122" filterUnits="userSpaceOnUse" color-interpolation-filters="sRGB">
<feFlood flood-opacity="0" result="BackgroundImageFix"/>
<feColorMatrix in="SourceAlpha" type="matrix" values="0 0 0 0 0 0 0 0 0 0 0 0 0 0 0 0 0 0 127 0" result="hardAlpha"/>
<feOffset dy="6"/>
<feGaussianBlur stdDeviation="2"/>
<feComposite in2="hardAlpha" operator="out"/>
<feColorMatrix type="matrix" values="0 0 0 0 0 0 0 0 0 0 0 0 0 0 0 0 0 0 0.35 0"/>
<feBlend mode="normal" in2="BackgroundImageFix" result="effect1_dropShadow_61_195"/>
<feBlend mode="normal" in="SourceGraphic" in2="effect1_dropShadow_61_195" result="shape"/>
</filter>
<filter id="filter9_d_61_195" x="93.8311" y="50.4712" width="29.6887" height="30.4885" filterUnits="userSpaceOnUse" color-interpolation-filters="sRGB">
<feFlood flood-opacity="0" result="BackgroundImageFix"/>
<feColorMatrix in="SourceAlpha" type="matrix" values="0 0 0 0 0 0 0 0 0 0 0 0 0 0 0 0 0 0 127 0" result="hardAlpha"/>
<feOffset dy="6"/>
<feGaussianBlur stdDeviation="2"/>
<feComposite in2="hardAlpha" operator="out"/>
<feColorMatrix type="matrix" values="0 0 0 0 0 0 0 0 0 0 0 0 0 0 0 0 0 0 0.35 0"/>
<feBlend mode="normal" in2="BackgroundImageFix" result="effect1_dropShadow_61_195"/>
<feBlend mode="normal" in="SourceGraphic" in2="effect1_dropShadow_61_195" result="shape"/>
</filter>
<filter id="filter10_d_61_195" x="229.368" y="50.7256" width="29.6143" height="29.8215" filterUnits="userSpaceOnUse" color-interpolation-filters="sRGB">
<feFlood flood-opacity="0" result="BackgroundImageFix"/>
<feColorMatrix in="SourceAlpha" type="matrix" values="0 0 0 0 0 0 0 0 0 0 0 0 0 0 0 0 0 0 127 0" result="hardAlpha"/>
<feOffset dy="6"/>
<feGaussianBlur stdDeviation="2"/>
<feComposite in2="hardAlpha" operator="out"/>
<feColorMatrix type="matrix" values="0 0 0 0 0 0 0 0 0 0 0 0 0 0 0 0 0 0 0.35 0"/>
<feBlend mode="normal" in2="BackgroundImageFix" result="effect1_dropShadow_61_195"/>
<feBlend mode="normal" in="SourceGraphic" in2="effect1_dropShadow_61_195" result="shape"/>
</filter>
<filter id="filter11_d_61_195" x="139.936" y="50.7703" width="32.0879" height="29.835" filterUnits="userSpaceOnUse" color-interpolation-filters="sRGB">
<feFlood flood-opacity="0" result="BackgroundImageFix"/>
<feColorMatrix in="SourceAlpha" type="matrix" values="0 0 0 0 0 0 0 0 0 0 0 0 0 0 0 0 0 0 127 0" result="hardAlpha"/>
<feOffset dy="6"/>
<feGaussianBlur stdDeviation="2"/>
<feComposite in2="hardAlpha" operator="out"/>
<feColorMatrix type="matrix" values="0 0 0 0 0 0 0 0 0 0 0 0 0 0 0 0 0 0 0.35 0"/>
<feBlend mode="normal" in2="BackgroundImageFix" result="effect1_dropShadow_61_195"/>
<feBlend mode="normal" in="SourceGraphic" in2="effect1_dropShadow_61_195" result="shape"/>
</filter>
<filter id="filter12_d_61_195" x="166.256" y="50.4414" width="28.6162" height="30.3254" filterUnits="userSpaceOnUse" color-interpolation-filters="sRGB">
<feFlood flood-opacity="0" result="BackgroundImageFix"/>
<feColorMatrix in="SourceAlpha" type="matrix" values="0 0 0 0 0 0 0 0 0 0 0 0 0 0 0 0 0 0 127 0" result="hardAlpha"/>
<feOffset dy="6"/>
<feGaussianBlur stdDeviation="2"/>
<feComposite in2="hardAlpha" operator="out"/>
<feColorMatrix type="matrix" values="0 0 0 0 0 0 0 0 0 0 0 0 0 0 0 0 0 0 0.35 0"/>
<feBlend mode="normal" in2="BackgroundImageFix" result="effect1_dropShadow_61_195"/>
<feBlend mode="normal" in="SourceGraphic" in2="effect1_dropShadow_61_195" result="shape"/>
</filter>
<filter id="filter13_d_61_195" x="312.215" y="18.2" width="29.2612" height="30.2322" filterUnits="userSpaceOnUse" color-interpolation-filters="sRGB">
<feFlood flood-opacity="0" result="BackgroundImageFix"/>
<feColorMatrix in="SourceAlpha" type="matrix" values="0 0 0 0 0 0 0 0 0 0 0 0 0 0 0 0 0 0 127 0" result="hardAlpha"/>
<feOffset dy="6"/>
<feGaussianBlur stdDeviation="2"/>
<feComposite in2="hardAlpha" operator="out"/>
<feColorMatrix type="matrix" values="0 0 0 0 0 0 0 0 0 0 0 0 0 0 0 0 0 0 0.35 0"/>
<feBlend mode="normal" in2="BackgroundImageFix" result="effect1_dropShadow_61_195"/>
<feBlend mode="normal" in="SourceGraphic" in2="effect1_dropShadow_61_195" result="shape"/>
</filter>
<filter id="filter14_d_61_195" x="119.936" y="18.3164" width="28.6624" height="30.084" filterUnits="userSpaceOnUse" color-interpolation-filters="sRGB">
<feFlood flood-opacity="0" result="BackgroundImageFix"/>
<feColorMatrix in="SourceAlpha" type="matrix" values="0 0 0 0 0 0 0 0 0 0 0 0 0 0 0 0 0 0 127 0" result="hardAlpha"/>
<feOffset dy="6"/>
<feGaussianBlur stdDeviation="2"/>
<feComposite in2="hardAlpha" operator="out"/>
<feColorMatrix type="matrix" values="0 0 0 0 0 0 0 0 0 0 0 0 0 0 0 0 0 0 0.35 0"/>
<feBlend mode="normal" in2="BackgroundImageFix" result="effect1_dropShadow_61_195"/>
<feBlend mode="normal" in="SourceGraphic" in2="effect1_dropShadow_61_195" result="shape"/>
</filter>
<filter id="filter15_d_61_195" x="140.344" y="18.6523" width="31.9802" height="29.3625" filterUnits="userSpaceOnUse" color-interpolation-filters="sRGB">
<feFlood flood-opacity="0" result="BackgroundImageFix"/>
<feColorMatrix in="SourceAlpha" type="matrix" values="0 0 0 0 0 0 0 0 0 0 0 0 0 0 0 0 0 0 127 0" result="hardAlpha"/>
<feOffset dy="6"/>
<feGaussianBlur stdDeviation="2"/>
<feComposite in2="hardAlpha" operator="out"/>
<feColorMatrix type="matrix" values="0 0 0 0 0 0 0 0 0 0 0 0 0 0 0 0 0 0 0.35 0"/>
<feBlend mode="normal" in2="BackgroundImageFix" result="effect1_dropShadow_61_195"/>
<feBlend mode="normal" in="SourceGraphic" in2="effect1_dropShadow_61_195" result="shape"/>
</filter>
<filter id="filter16_d_61_195" x="207.209" y="50.8093" width="28.7085" height="29.4983" filterUnits="userSpaceOnUse" color-interpolation-filters="sRGB">
<feFlood flood-opacity="0" result="BackgroundImageFix"/>
<feColorMatrix in="SourceAlpha" type="matrix" values="0 0 0 0 0 0 0 0 0 0 0 0 0 0 0 0 0 0 127 0" result="hardAlpha"/>
<feOffset dy="6"/>
<feGaussianBlur stdDeviation="2"/>
<feComposite in2="hardAlpha" operator="out"/>
<feColorMatrix type="matrix" values="0 0 0 0 0 0 0 0 0 0 0 0 0 0 0 0 0 0 0.35 0"/>
<feBlend mode="normal" in2="BackgroundImageFix" result="effect1_dropShadow_61_195"/>
<feBlend mode="normal" in="SourceGraphic" in2="effect1_dropShadow_61_195" result="shape"/>
</filter>
<filter id="filter17_d_61_195" x="265.81" y="18.3516" width="25.7612" height="30.1235" filterUnits="userSpaceOnUse" color-interpolation-filters="sRGB">
<feFlood flood-opacity="0" result="BackgroundImageFix"/>
<feColorMatrix in="SourceAlpha" type="matrix" values="0 0 0 0 0 0 0 0 0 0 0 0 0 0 0 0 0 0 127 0" result="hardAlpha"/>
<feOffset dy="6"/>
<feGaussianBlur stdDeviation="2"/>
<feComposite in2="hardAlpha" operator="out"/>
<feColorMatrix type="matrix" values="0 0 0 0 0 0 0 0 0 0 0 0 0 0 0 0 0 0 0.35 0"/>
<feBlend mode="normal" in2="BackgroundImageFix" result="effect1_dropShadow_61_195"/>
<feBlend mode="normal" in="SourceGraphic" in2="effect1_dropShadow_61_195" result="shape"/>
</filter>
<filter id="filter18_d_61_195" x="187.748" y="50.8264" width="25.8696" height="30.0562" filterUnits="userSpaceOnUse" color-interpolation-filters="sRGB">
<feFlood flood-opacity="0" result="BackgroundImageFix"/>
<feColorMatrix in="SourceAlpha" type="matrix" values="0 0 0 0 0 0 0 0 0 0 0 0 0 0 0 0 0 0 127 0" result="hardAlpha"/>
<feOffset dy="6"/>
<feGaussianBlur stdDeviation="2"/>
<feComposite in2="hardAlpha" operator="out"/>
<feColorMatrix type="matrix" values="0 0 0 0 0 0 0 0 0 0 0 0 0 0 0 0 0 0 0.35 0"/>
<feBlend mode="normal" in2="BackgroundImageFix" result="effect1_dropShadow_61_195"/>
<feBlend mode="normal" in="SourceGraphic" in2="effect1_dropShadow_61_195" result="shape"/>
</filter>
<filter id="filter19_d_61_195" x="422.324" y="57.6318" width="21.0513" height="22.4995" filterUnits="userSpaceOnUse" color-interpolation-filters="sRGB">
<feFlood flood-opacity="0" result="BackgroundImageFix"/>
<feColorMatrix in="SourceAlpha" type="matrix" values="0 0 0 0 0 0 0 0 0 0 0 0 0 0 0 0 0 0 127 0" result="hardAlpha"/>
<feOffset dy="6"/>
<feGaussianBlur stdDeviation="2"/>
<feComposite in2="hardAlpha" operator="out"/>
<feColorMatrix type="matrix" values="0 0 0 0 0 0 0 0 0 0 0 0 0 0 0 0 0 0 0.35 0"/>
<feBlend mode="normal" in2="BackgroundImageFix" result="effect1_dropShadow_61_195"/>
<feBlend mode="normal" in="SourceGraphic" in2="effect1_dropShadow_61_195" result="shape"/>
</filter>
<filter id="filter20_d_61_195" x="407.964" y="57.7375" width="19.6365" height="22.4617" filterUnits="userSpaceOnUse" color-interpolation-filters="sRGB">
<feFlood flood-opacity="0" result="BackgroundImageFix"/>
<feColorMatrix in="SourceAlpha" type="matrix" values="0 0 0 0 0 0 0 0 0 0 0 0 0 0 0 0 0 0 127 0" result="hardAlpha"/>
<feOffset dy="6"/>
<feGaussianBlur stdDeviation="2"/>
<feComposite in2="hardAlpha" operator="out"/>
<feColorMatrix type="matrix" values="0 0 0 0 0 0 0 0 0 0 0 0 0 0 0 0 0 0 0.35 0"/>
<feBlend mode="normal" in2="BackgroundImageFix" result="effect1_dropShadow_61_195"/>
<feBlend mode="normal" in="SourceGraphic" in2="effect1_dropShadow_61_195" result="shape"/>
</filter>
<filter id="filter21_d_61_195" x="284.155" y="57.614" width="20.0254" height="22.5994" filterUnits="userSpaceOnUse" color-interpolation-filters="sRGB">
<feFlood flood-opacity="0" result="BackgroundImageFix"/>
<feColorMatrix in="SourceAlpha" type="matrix" values="0 0 0 0 0 0 0 0 0 0 0 0 0 0 0 0 0 0 127 0" result="hardAlpha"/>
<feOffset dy="6"/>
<feGaussianBlur stdDeviation="2"/>
<feComposite in2="hardAlpha" operator="out"/>
<feColorMatrix type="matrix" values="0 0 0 0 0 0 0 0 0 0 0 0 0 0 0 0 0 0 0.35 0"/>
<feBlend mode="normal" in2="BackgroundImageFix" result="effect1_dropShadow_61_195"/>
<feBlend mode="normal" in="SourceGraphic" in2="effect1_dropShadow_61_195" result="shape"/>
</filter>
<filter id="filter22_d_61_195" x="313.031" y="57.6318" width="20.7175" height="25.6023" filterUnits="userSpaceOnUse" color-interpolation-filters="sRGB">
<feFlood flood-opacity="0" result="BackgroundImageFix"/>
<feColorMatrix in="SourceAlpha" type="matrix" values="0 0 0 0 0 0 0 0 0 0 0 0 0 0 0 0 0 0 127 0" result="hardAlpha"/>
<feOffset dy="6"/>
<feGaussianBlur stdDeviation="2"/>
<feComposite in2="hardAlpha" operator="out"/>
<feColorMatrix type="matrix" values="0 0 0 0 0 0 0 0 0 0 0 0 0 0 0 0 0 0 0.35 0"/>
<feBlend mode="normal" in2="BackgroundImageFix" result="effect1_dropShadow_61_195"/>
<feBlend mode="normal" in="SourceGraphic" in2="effect1_dropShadow_61_195" result="shape"/>
</filter>
<filter id="filter23_d_61_195" x="437.868" y="57.5964" width="20.1316" height="22.6758" filterUnits="userSpaceOnUse" color-interpolation-filters="sRGB">
<feFlood flood-opacity="0" result="BackgroundImageFix"/>
<feColorMatrix in="SourceAlpha" type="matrix" values="0 0 0 0 0 0 0 0 0 0 0 0 0 0 0 0 0 0 127 0" result="hardAlpha"/>
<feOffset dy="6"/>
<feGaussianBlur stdDeviation="2"/>
<feComposite in2="hardAlpha" operator="out"/>
<feColorMatrix type="matrix" values="0 0 0 0 0 0 0 0 0 0 0 0 0 0 0 0 0 0 0.35 0"/>
<feBlend mode="normal" in2="BackgroundImageFix" result="effect1_dropShadow_61_195"/>
<feBlend mode="normal" in="SourceGraphic" in2="effect1_dropShadow_61_195" result="shape"/>
</filter>
<filter id="filter24_d_61_195" x="358.659" y="57.5999" width="17.6606" height="22.6372" filterUnits="userSpaceOnUse" color-interpolation-filters="sRGB">
<feFlood flood-opacity="0" result="BackgroundImageFix"/>
<feColorMatrix in="SourceAlpha" type="matrix" values="0 0 0 0 0 0 0 0 0 0 0 0 0 0 0 0 0 0 127 0" result="hardAlpha"/>
<feOffset dy="6"/>
<feGaussianBlur stdDeviation="2"/>
<feComposite in2="hardAlpha" operator="out"/>
<feColorMatrix type="matrix" values="0 0 0 0 0 0 0 0 0 0 0 0 0 0 0 0 0 0 0.35 0"/>
<feBlend mode="normal" in2="BackgroundImageFix" result="effect1_dropShadow_61_195"/>
<feBlend mode="normal" in="SourceGraphic" in2="effect1_dropShadow_61_195" result="shape"/>
</filter>
<filter id="filter25_d_61_195" x="257.451" y="57.2273" width="19.5005" height="23.4929" filterUnits="userSpaceOnUse" color-interpolation-filters="sRGB">
<feFlood flood-opacity="0" result="BackgroundImageFix"/>
<feColorMatrix in="SourceAlpha" type="matrix" values="0 0 0 0 0 0 0 0 0 0 0 0 0 0 0 0 0 0 127 0" result="hardAlpha"/>
<feOffset dy="6"/>
<feGaussianBlur stdDeviation="2"/>
<feComposite in2="hardAlpha" operator="out"/>
<feColorMatrix type="matrix" values="0 0 0 0 0 0 0 0 0 0 0 0 0 0 0 0 0 0 0.35 0"/>
<feBlend mode="normal" in2="BackgroundImageFix" result="effect1_dropShadow_61_195"/>
<feBlend mode="normal" in="SourceGraphic" in2="effect1_dropShadow_61_195" result="shape"/>
</filter>
<filter id="filter26_d_61_195" x="393.962" y="57.2258" width="19.3972" height="23.3828" filterUnits="userSpaceOnUse" color-interpolation-filters="sRGB">
<feFlood flood-opacity="0" result="BackgroundImageFix"/>
<feColorMatrix in="SourceAlpha" type="matrix" values="0 0 0 0 0 0 0 0 0 0 0 0 0 0 0 0 0 0 127 0" result="hardAlpha"/>
<feOffset dy="6"/>
<feGaussianBlur stdDeviation="2"/>
<feComposite in2="hardAlpha" operator="out"/>
<feColorMatrix type="matrix" values="0 0 0 0 0 0 0 0 0 0 0 0 0 0 0 0 0 0 0.35 0"/>
<feBlend mode="normal" in2="BackgroundImageFix" result="effect1_dropShadow_61_195"/>
<feBlend mode="normal" in="SourceGraphic" in2="effect1_dropShadow_61_195" result="shape"/>
</filter>
<filter id="filter27_d_61_195" x="381.116" y="57.4795" width="19.6389" height="23.1702" filterUnits="userSpaceOnUse" color-interpolation-filters="sRGB">
<feFlood flood-opacity="0" result="BackgroundImageFix"/>
<feColorMatrix in="SourceAlpha" type="matrix" values="0 0 0 0 0 0 0 0 0 0 0 0 0 0 0 0 0 0 127 0" result="hardAlpha"/>
<feOffset dy="6"/>
<feGaussianBlur stdDeviation="2"/>
<feComposite in2="hardAlpha" operator="out"/>
<feColorMatrix type="matrix" values="0 0 0 0 0 0 0 0 0 0 0 0 0 0 0 0 0 0 0.35 0"/>
<feBlend mode="normal" in2="BackgroundImageFix" result="effect1_dropShadow_61_195"/>
<feBlend mode="normal" in="SourceGraphic" in2="effect1_dropShadow_61_195" result="shape"/>
</filter>
<filter id="filter28_d_61_195" x="369.005" y="57.4553" width="19.7957" height="23.0549" filterUnits="userSpaceOnUse" color-interpolation-filters="sRGB">
<feFlood flood-opacity="0" result="BackgroundImageFix"/>
<feColorMatrix in="SourceAlpha" type="matrix" values="0 0 0 0 0 0 0 0 0 0 0 0 0 0 0 0 0 0 127 0" result="hardAlpha"/>
<feOffset dy="6"/>
<feGaussianBlur stdDeviation="2"/>
<feComposite in2="hardAlpha" operator="out"/>
<feColorMatrix type="matrix" values="0 0 0 0 0 0 0 0 0 0 0 0 0 0 0 0 0 0 0.35 0"/>
<feBlend mode="normal" in2="BackgroundImageFix" result="effect1_dropShadow_61_195"/>
<feBlend mode="normal" in="SourceGraphic" in2="effect1_dropShadow_61_195" result="shape"/>
</filter>
<filter id="filter29_d_61_195" x="328.083" y="57.5" width="18.2104" height="22.5605" filterUnits="userSpaceOnUse" color-interpolation-filters="sRGB">
<feFlood flood-opacity="0" result="BackgroundImageFix"/>
<feColorMatrix in="SourceAlpha" type="matrix" values="0 0 0 0 0 0 0 0 0 0 0 0 0 0 0 0 0 0 127 0" result="hardAlpha"/>
<feOffset dy="6"/>
<feGaussianBlur stdDeviation="2"/>
<feComposite in2="hardAlpha" operator="out"/>
<feColorMatrix type="matrix" values="0 0 0 0 0 0 0 0 0 0 0 0 0 0 0 0 0 0 0.35 0"/>
<feBlend mode="normal" in2="BackgroundImageFix" result="effect1_dropShadow_61_195"/>
<feBlend mode="normal" in="SourceGraphic" in2="effect1_dropShadow_61_195" result="shape"/>
</filter>
<filter id="filter30_d_61_195" x="270.54" y="57.365" width="19.2261" height="23.1719" filterUnits="userSpaceOnUse" color-interpolation-filters="sRGB">
<feFlood flood-opacity="0" result="BackgroundImageFix"/>
<feColorMatrix in="SourceAlpha" type="matrix" values="0 0 0 0 0 0 0 0 0 0 0 0 0 0 0 0 0 0 127 0" result="hardAlpha"/>
<feOffset dy="6"/>
<feGaussianBlur stdDeviation="2"/>
<feComposite in2="hardAlpha" operator="out"/>
<feColorMatrix type="matrix" values="0 0 0 0 0 0 0 0 0 0 0 0 0 0 0 0 0 0 0.35 0"/>
<feBlend mode="normal" in2="BackgroundImageFix" result="effect1_dropShadow_61_195"/>
<feBlend mode="normal" in="SourceGraphic" in2="effect1_dropShadow_61_195" result="shape"/>
</filter>
<filter id="filter31_d_61_195" x="298.603" y="57.1733" width="20.5029" height="23.0813" filterUnits="userSpaceOnUse" color-interpolation-filters="sRGB">
<feFlood flood-opacity="0" result="BackgroundImageFix"/>
<feColorMatrix in="SourceAlpha" type="matrix" values="0 0 0 0 0 0 0 0 0 0 0 0 0 0 0 0 0 0 127 0" result="hardAlpha"/>
<feOffset dy="6"/>
<feGaussianBlur stdDeviation="2"/>
<feComposite in2="hardAlpha" operator="out"/>
<feColorMatrix type="matrix" values="0 0 0 0 0 0 0 0 0 0 0 0 0 0 0 0 0 0 0.35 0"/>
<feBlend mode="normal" in2="BackgroundImageFix" result="effect1_dropShadow_61_195"/>
<feBlend mode="normal" in="SourceGraphic" in2="effect1_dropShadow_61_195" result="shape"/>
</filter>
<filter id="filter32_d_61_195" x="337.756" y="56.6091" width="20.8921" height="23.575" filterUnits="userSpaceOnUse" color-interpolation-filters="sRGB">
<feFlood flood-opacity="0" result="BackgroundImageFix"/>
<feColorMatrix in="SourceAlpha" type="matrix" values="0 0 0 0 0 0 0 0 0 0 0 0 0 0 0 0 0 0 127 0" result="hardAlpha"/>
<feOffset dy="6"/>
<feGaussianBlur stdDeviation="2"/>
<feComposite in2="hardAlpha" operator="out"/>
<feColorMatrix type="matrix" values="0 0 0 0 0 0 0 0 0 0 0 0 0 0 0 0 0 0 0.35 0"/>
<feBlend mode="normal" in2="BackgroundImageFix" result="effect1_dropShadow_61_195"/>
<feBlend mode="normal" in="SourceGraphic" in2="effect1_dropShadow_61_195" result="shape"/>
</filter>
<clipPath id="clip0_61_195">
<rect width="450" height="90" fill="white" transform="translate(4)"/>
</clipPath>
</defs>
</svg>
